<svg xmlns="http://www.w3.org/2000/svg" xmlns:xlink="http://www.w3.org/1999/xlink" width="500" zoomAndPan="magnify" viewBox="0 0 375 374.999991" height="500" preserveAspectRatio="xMidYMid meet" version="1.0"><defs><filter x="0%" y="0%" width="100%" height="100%" id="14f53c13e0"><feColorMatrix values="0 0 0 0 1 0 0 0 0 1 0 0 0 0 1 0 0 0 1 0" color-interpolation-filters="sRGB"/></filter><g/><mask id="2de722ab67"><g filter="url(#14f53c13e0)"><rect x="-37.5" width="450" fill="#000000" y="-37.499999" height="449.999989" fill-opacity="0.949"/></g></mask><clipPath id="8f9e21952e"><path d="M 1.007812 0.660156 L 284.378906 0.660156 L 284.378906 209 L 1.007812 209 Z M 1.007812 0.660156 " clip-rule="nonzero"/></clipPath><clipPath id="80dbdb0300"><path d="M 46 191 L 276 191 L 276 284.03125 L 46 284.03125 Z M 46 191 " clip-rule="nonzero"/></clipPath><clipPath id="b61864dd8e"><rect x="0" width="285" y="0" height="285"/></clipPath><clipPath id="d787d307f2"><path d="M 175 173 L 271.898438 173 L 271.898438 278 L 175 278 Z M 175 173 " clip-rule="nonzero"/></clipPath><clipPath id="b439d61dc2"><path d="M 146 233 L 247 233 L 247 332.785156 L 146 332.785156 Z M 146 233 " clip-rule="nonzero"/></clipPath><clipPath id="c3b5f82222"><path d="M 155 280 L 217 280 L 217 332.785156 L 155 332.785156 Z M 155 280 " clip-rule="nonzero"/></clipPath><clipPath id="797745da80"><path d="M 86.617188 149 L 109 149 L 109 172 L 86.617188 172 Z M 86.617188 149 " clip-rule="nonzero"/></clipPath><clipPath id="2a3df45b9f"><path d="M 131 109.355469 L 145 109.355469 L 145 123 L 131 123 Z M 131 109.355469 " clip-rule="nonzero"/></clipPath></defs><g mask="url(#2de722ab67)"><g transform="matrix(1, 0, 0, 1, 45, 62)"><g clip-path="url(#b61864dd8e)"><path fill="#0292b7" d="M 12.035156 197.257812 C 18.480469 212.570312 27.535156 226.515625 38.652344 238.53125 C 72.222656 235.546875 98.816406 225.996094 122.257812 215.390625 C 80.246094 228.378906 35.859375 228.503906 12.035156 197.257812 " fill-opacity="1" fill-rule="nonzero"/><g clip-path="url(#8f9e21952e)"><path fill="#f6f3ee" d="M 156.851562 198.742188 C 193.457031 181.109375 226.605469 168.894531 276.003906 190.460938 C 281.429688 175.441406 284.386719 159.238281 284.386719 142.34375 C 284.386719 64.089844 220.945312 0.652344 142.691406 0.652344 C 64.4375 0.652344 1 64.089844 1 142.34375 C 1 157.710938 3.449219 172.507812 7.972656 186.363281 C 65.703125 216.988281 115.523438 211.605469 156.851562 198.742188 " fill-opacity="1" fill-rule="nonzero"/></g><g clip-path="url(#80dbdb0300)"><path fill="#0292b7" d="M 169.144531 233.078125 C 198.542969 213.082031 239.125 196.765625 270.703125 203.171875 C 272.496094 199.398438 274.128906 195.53125 275.597656 191.582031 C 192.3125 184.152344 147.847656 264.964844 46.554688 246.429688 C 71.8125 269.773438 105.585938 284.039062 142.691406 284.039062 C 193.761719 284.039062 238.519531 257.019531 263.453125 216.5 C 226.398438 211.054688 195.222656 221.167969 169.144531 233.078125 " fill-opacity="1" fill-rule="nonzero"/></g></g></g></g><g fill="#02084b" fill-opacity="1"><g transform="translate(54.407271, 212.880693)"><g><path d="M 0.246094 -5.285156 C -3.402344 -4.34375 -7.007812 -4.332031 -10.207031 -4.484375 L -26.019531 -5.175781 L 1.058594 -22.695312 L 1.359375 -29.089844 L -20.003906 -30.089844 C -22.933594 -30.226562 -26.914062 -30.8125 -29.757812 -31.835938 L -29.914062 -28.460938 C -26.988281 -29.167969 -23.058594 -29.429688 -20.039062 -29.289062 L -2.097656 -28.449219 L -30.785156 -9.851562 L -31.03125 -4.609375 L -10.246094 -3.640625 C -6.515625 -3.464844 -3.457031 -3.1875 0.0898438 -1.910156 Z M 0.246094 -5.285156 "/></g></g></g><g fill="#02084b" fill-opacity="1"><g transform="translate(55.450191, 184.23934)"><g><path d="M 4.441406 -14.09375 C 6.714844 -22.644531 4.871094 -29.023438 -0.867188 -30.457031 C -10.050781 -32.765625 -19.164062 -12.183594 -24.386719 -13.484375 C -27.316406 -14.21875 -27.324219 -17.484375 -26.453125 -20.75 C -25.597656 -23.972656 -22.714844 -28.40625 -17.390625 -33.015625 L -22.050781 -34.53125 C -24.230469 -30.832031 -25.917969 -26.910156 -26.925781 -23.128906 C -29.003906 -15.3125 -28.175781 -8.234375 -22.921875 -6.882812 C -15.667969 -5.089844 -8.632812 -22.359375 -1.675781 -23.265625 C 2.226562 -23.746094 4.894531 -19.953125 3.683594 -15.398438 C 2.746094 -11.875 -0.210938 -7.507812 -5.9375 -3.097656 L -1.28125 -1.582031 C 1.457031 -5.824219 3.378906 -10.097656 4.441406 -14.09375 Z M 4.441406 -14.09375 "/></g></g></g><g fill="#02084b" fill-opacity="1"><g transform="translate(62.22262, 156.920041)"><g><path d="M 3.90625 -7.488281 L -5.609375 -18.570312 L 0.519531 -30.316406 L 2.800781 -30.082031 C 7.707031 -29.578125 12.023438 -27.476562 13.878906 -26.609375 L 15.421875 -29.566406 L -18.007812 -32.960938 L -21.710938 -25.867188 L 0.207031 -0.394531 Z M -17.289062 -32.132812 L -0.394531 -30.394531 L -6.214844 -19.238281 Z M -17.289062 -32.132812 "/></g></g></g><g fill="#02084b" fill-opacity="1"><g transform="translate(76.203372, 129.61433)"><g><path d="M 3.421875 -4.035156 C -0.046875 -5.515625 -2.910156 -7.710938 -5.351562 -9.777344 L -17.457031 -19.976562 L 14.6875 -17.332031 L 18.828125 -22.21875 L 2.511719 -36.042969 C 0.269531 -37.941406 -2.523438 -40.832031 -4.152344 -43.378906 L -6.335938 -40.800781 C -3.585938 -39.578125 -0.3125 -37.386719 1.992188 -35.433594 L 15.695312 -23.820312 L -18.378906 -26.589844 L -21.773438 -22.585938 L -5.898438 -9.132812 C -3.046875 -6.71875 -0.792969 -4.636719 1.234375 -1.457031 Z M 3.421875 -4.035156 "/></g></g></g><g fill="#02084b" fill-opacity="1"><g transform="translate(94.505599, 107.557135)"><g><path d="M 12.117188 -8.457031 C 19.136719 -13.84375 21.566406 -20.023438 17.898438 -24.660156 C 12.027344 -32.09375 -7.746094 -21.347656 -11.09375 -25.5625 C -12.96875 -27.933594 -10.976562 -30.523438 -8.296875 -32.582031 C -5.652344 -34.609375 -0.664062 -36.363281 6.367188 -36.769531 L 3.601562 -40.8125 C -0.382812 -39.210938 -4.113281 -37.136719 -7.21875 -34.753906 C -13.636719 -29.828125 -17.296875 -23.714844 -13.960938 -19.4375 C -9.308594 -13.59375 6.800781 -22.980469 12.867188 -19.457031 C 16.25 -17.457031 16.054688 -12.820312 12.3125 -9.953125 C 9.421875 -7.734375 4.414062 -6.078125 -2.8125 -6.078125 L -0.0507812 -2.035156 C 4.707031 -3.722656 8.835938 -5.9375 12.117188 -8.457031 Z M 12.117188 -8.457031 "/></g></g></g><g fill="#02084b" fill-opacity="1"><g transform="translate(116.540523, 90.04343)"><g><path d="M 7.664062 -3.550781 L 6.886719 -18.136719 L 18.910156 -23.703125 L 20.574219 -22.121094 C 24.152344 -18.734375 26.292969 -14.433594 27.230469 -12.613281 L 30.257812 -14.015625 L 5.84375 -37.105469 L -1.417969 -33.742188 L 0.402344 -0.1875 Z M 5.910156 -36.007812 L 18.230469 -24.320312 L 6.816406 -19.03125 Z M 5.910156 -36.007812 "/></g></g></g><g fill="#02084b" fill-opacity="1"><g transform="translate(145.491638, 77.421396)"><g/></g></g><g fill="#02084b" fill-opacity="1"><g transform="translate(154.322855, 74.803087)"><g/></g></g><g fill="#02084b" fill-opacity="1"><g transform="translate(161.128914, 70.778958)"><g><path d="M 45.609375 -31.417969 C 46.566406 -26.222656 46.363281 -21.550781 44.214844 -15.226562 L 39.519531 -1.335938 L 29.070312 -31.34375 L 21.066406 -31.308594 L 25.347656 -19.011719 L 19.335938 -1.242188 L 8.882812 -31.253906 L 0.882812 -31.214844 L 11.738281 -0.0546875 L 19.742188 -0.0898438 L 25.75 -17.855469 L 31.921875 -0.144531 L 39.925781 -0.179688 L 50.5 -31.441406 Z M 45.609375 -31.417969 "/></g></g></g><g fill="#02084b" fill-opacity="1"><g transform="translate(208.930746, 71.568219)"><g><path d="M 14.230469 -13.859375 L 27.597656 -10.152344 L 27.808594 -10.921875 L 14.445312 -14.632812 L 17.761719 -26.585938 C 26.117188 -24.265625 29.308594 -22.132812 32.789062 -18.214844 L 34.097656 -22.925781 L 10.277344 -29.539062 L 1.929688 0.535156 L 26.390625 7.324219 L 27.699219 2.613281 C 22.234375 4.511719 18.175781 4.167969 9.863281 1.863281 Z M 14.230469 -13.859375 "/></g></g></g><g fill="#02084b" fill-opacity="1"><g transform="translate(234.649454, 78.605972)"><g><path d="M 22.402344 11.066406 L 24.570312 6.683594 C 18.886719 7.246094 15.324219 6.628906 9.34375 3.671875 L 22.792969 -23.554688 L 15.617188 -27.097656 L 1.792969 0.886719 Z M 22.402344 11.066406 "/></g></g></g><g fill="#02084b" fill-opacity="1"><g transform="translate(255.850665, 88.830498)"><g><path d="M 20.105469 14.835938 L 23.007812 10.902344 C 17.316406 10.457031 13.917969 9.21875 8.550781 5.261719 L 26.582031 -19.175781 L 20.140625 -23.925781 L 1.609375 1.1875 Z M 20.105469 14.835938 "/></g></g></g><g fill="#02084b" fill-opacity="1"><g transform="translate(274.933892, 102.234441)"><g><path d="M 3.5625 3.910156 C 5.476562 0.664062 8.019531 -1.894531 10.382812 -4.050781 L 22.050781 -14.746094 L 15.304688 16.789062 L 19.617188 21.523438 L 35.421875 7.113281 C 37.59375 5.136719 40.820312 2.738281 43.554688 1.449219 L 41.277344 -1.046875 C 39.710938 1.523438 37.117188 4.488281 34.882812 6.523438 L 21.609375 18.625 L 28.726562 -14.816406 L 25.191406 -18.695312 L 9.816406 -4.675781 C 7.054688 -2.160156 4.699219 -0.191406 1.289062 1.414062 Z M 3.5625 3.910156 "/></g></g></g><g fill="#02084b" fill-opacity="1"><g transform="translate(294.423734, 123.34701)"><g><path d="M 19.863281 -0.0859375 L 26.902344 11.867188 L 27.59375 11.460938 L 20.554688 -0.492188 L 31.242188 -6.785156 C 35.640625 0.6875 36.457031 4.4375 36.238281 9.671875 L 40.453125 7.191406 L 27.910156 -14.109375 L 1.015625 1.722656 L 13.894531 23.601562 L 18.109375 21.121094 C 12.859375 18.691406 10.179688 15.625 5.804688 8.191406 Z M 19.863281 -0.0859375 "/></g></g></g><g fill="#02084b" fill-opacity="1"><g transform="translate(308.190958, 145.945978)"><g><path d="M 4.101562 14.195312 C 6.941406 22.574219 12.007812 26.867188 17.582031 24.886719 C 26.507812 21.722656 22.703125 -0.460938 27.773438 -2.269531 C 30.621094 -3.28125 32.433594 -0.5625 33.515625 2.636719 C 34.585938 5.796875 34.640625 11.082031 32.761719 17.867188 L 37.480469 16.550781 C 37.246094 12.265625 36.480469 8.066406 35.226562 4.359375 C 32.632812 -3.304688 28.023438 -8.738281 22.898438 -6.957031 C 15.867188 -4.433594 19.566406 13.839844 14.273438 18.449219 C 11.292969 21.007812 6.96875 19.328125 5.457031 14.863281 C 4.285156 11.410156 4.332031 6.136719 6.660156 -0.707031 L 1.941406 0.609375 C 2.007812 5.65625 2.777344 10.277344 4.101562 14.195312 Z M 4.101562 14.195312 "/></g></g></g><g fill="#02084b" fill-opacity="1"><g transform="translate(317.548199, 172.590516)"><g><path d="M 1.027344 14.742188 C 2.039062 23.53125 6.089844 28.792969 11.953125 28.027344 C 21.347656 26.8125 22.292969 4.324219 27.628906 3.621094 C 30.625 3.230469 31.828125 6.273438 32.214844 9.628906 C 32.59375 12.941406 31.535156 18.121094 28.269531 24.359375 L 33.160156 24.066406 C 33.835938 19.824219 33.96875 15.558594 33.523438 11.671875 C 32.597656 3.632812 29.234375 -2.648438 23.847656 -1.984375 C 16.445312 -0.996094 16.21875 17.644531 10.074219 21.039062 C 6.621094 22.914062 2.746094 20.359375 2.207031 15.679688 C 1.789062 12.058594 2.945312 6.910156 6.660156 0.710938 L 1.773438 1.003906 C 0.773438 5.953125 0.550781 10.632812 1.027344 14.742188 Z M 1.027344 14.742188 "/></g></g></g><g fill="#02084b" fill-opacity="1"><g transform="translate(320.292637, 201.596753)"><g/></g></g><path fill="#f9ed32" d="M 183.890625 140.164062 C 184.683594 140.164062 185.472656 140.085938 186.253906 139.933594 C 187.035156 139.777344 187.792969 139.546875 188.527344 139.242188 C 189.261719 138.9375 189.960938 138.566406 190.625 138.125 C 191.285156 137.679688 191.898438 137.179688 192.460938 136.617188 C 193.023438 136.054688 193.527344 135.441406 193.96875 134.78125 C 194.410156 134.121094 194.785156 133.421875 195.089844 132.6875 C 195.394531 131.953125 195.625 131.195312 195.78125 130.414062 C 195.9375 129.632812 196.015625 128.84375 196.015625 128.050781 C 196.015625 127.253906 195.9375 126.464844 195.785156 125.683594 C 195.628906 124.90625 195.398438 124.148438 195.09375 123.410156 C 194.792969 122.675781 194.417969 121.976562 193.976562 121.316406 C 193.535156 120.652344 193.035156 120.039062 192.472656 119.476562 C 191.910156 118.914062 191.296875 118.410156 190.636719 117.96875 C 189.976562 117.527344 189.277344 117.152344 188.542969 116.847656 C 187.808594 116.542969 187.050781 116.308594 186.269531 116.152344 C 185.488281 115.996094 184.699219 115.917969 183.90625 115.917969 C 183.109375 115.917969 182.320312 115.992188 181.539062 116.148438 C 180.757812 116.300781 180 116.53125 179.265625 116.835938 C 178.527344 117.136719 177.832031 117.511719 177.167969 117.953125 C 176.503906 118.390625 175.890625 118.894531 175.328125 119.457031 C 174.765625 120.015625 174.261719 120.628906 173.816406 121.289062 C 173.375 121.949219 173 122.648438 172.695312 123.382812 C 172.390625 124.117188 172.15625 124.875 172 125.65625 C 171.84375 126.433594 171.765625 127.222656 171.761719 128.019531 C 171.761719 128.816406 171.839844 129.605469 171.996094 130.386719 C 172.152344 131.167969 172.382812 131.925781 172.6875 132.660156 C 172.992188 133.398438 173.363281 134.097656 173.804688 134.757812 C 174.25 135.421875 174.75 136.035156 175.3125 136.597656 C 175.875 137.164062 176.488281 137.667969 177.152344 138.109375 C 177.8125 138.554688 178.511719 138.929688 179.246094 139.234375 C 179.984375 139.539062 180.742188 139.769531 181.523438 139.925781 C 182.304688 140.085938 183.09375 140.164062 183.890625 140.164062 Z M 183.890625 140.164062 " fill-opacity="0.7765" fill-rule="evenodd"/><path fill="#662d91" d="M 242.628906 149.511719 C 245.921875 153.332031 248.644531 157.523438 250.800781 162.082031 C 252.953125 166.644531 254.457031 171.410156 255.3125 176.378906 C 257.769531 190.75 254.023438 204.054688 256.652344 213 C 257.265625 215.003906 258.089844 216.917969 259.125 218.746094 C 258.511719 219.101562 257.886719 219.441406 257.253906 219.765625 C 256.617188 220.085938 255.976562 220.390625 255.324219 220.671875 C 254.675781 220.957031 254.015625 221.226562 253.347656 221.472656 C 252.683594 221.71875 252.007812 221.945312 251.328125 222.15625 C 250.648438 222.363281 249.964844 222.550781 249.273438 222.722656 C 248.585938 222.890625 247.890625 223.039062 247.191406 223.171875 C 246.492188 223.300781 245.789062 223.410156 245.085938 223.496094 C 244.378906 223.585938 243.671875 223.65625 242.964844 223.703125 C 242.253906 223.753906 241.542969 223.78125 240.832031 223.789062 C 240.121094 223.796875 239.414062 223.785156 238.703125 223.75 C 237.992188 223.71875 237.285156 223.664062 236.578125 223.59375 C 235.871094 223.519531 235.164062 223.425781 234.464844 223.3125 C 233.761719 223.199219 233.066406 223.0625 232.371094 222.910156 C 231.675781 222.757812 230.988281 222.582031 230.304688 222.390625 C 229.621094 222.195312 228.941406 221.984375 228.269531 221.75 C 227.597656 221.519531 226.933594 221.265625 226.277344 220.996094 C 225.617188 220.726562 224.96875 220.4375 224.328125 220.128906 C 223.6875 219.824219 223.058594 219.496094 222.433594 219.152344 C 221.8125 218.808594 221.199219 218.449219 220.601562 218.070312 C 220 217.691406 219.410156 217.292969 218.828125 216.882812 C 218.25 216.46875 217.683594 216.039062 217.128906 215.59375 C 216.578125 215.148438 216.035156 214.6875 215.507812 214.210938 C 214.980469 213.738281 214.46875 213.246094 213.96875 212.738281 C 213.46875 212.234375 212.984375 211.714844 212.515625 211.179688 C 212.042969 210.648438 211.589844 210.101562 211.152344 209.542969 C 210.714844 208.984375 210.292969 208.410156 209.886719 207.828125 C 209.480469 207.242188 209.09375 206.648438 208.71875 206.042969 C 208.347656 205.4375 207.996094 204.820312 207.660156 204.195312 C 207.324219 203.570312 207.003906 202.933594 206.707031 202.289062 C 206.40625 201.644531 206.125 200.992188 205.863281 200.332031 C 205.601562 199.671875 205.359375 199.003906 205.132812 198.328125 C 204.910156 197.652344 204.707031 196.972656 204.519531 196.289062 C 204.335938 195.601562 204.171875 194.910156 204.027344 194.214844 C 203.878906 193.519531 203.753906 192.820312 203.652344 192.117188 C 203.546875 191.414062 203.460938 190.707031 203.394531 190 C 203.332031 189.292969 203.285156 188.585938 203.261719 187.875 C 203.238281 187.164062 203.234375 186.453125 203.253906 185.742188 C 203.269531 185.03125 203.304688 184.324219 203.363281 183.613281 C 203.421875 182.90625 203.5 182.199219 203.597656 181.496094 C 203.695312 180.792969 203.8125 180.09375 203.949219 179.394531 C 204.089844 178.699219 204.246094 178.003906 204.425781 177.316406 C 204.601562 176.628906 204.800781 175.945312 205.015625 175.269531 C 205.234375 174.59375 205.472656 173.921875 205.726562 173.261719 C 205.980469 172.597656 206.257812 171.941406 206.550781 171.292969 C 206.84375 170.648438 207.152344 170.007812 207.484375 169.378906 C 207.8125 168.75 208.160156 168.128906 208.527344 167.519531 C 208.890625 166.910156 209.273438 166.3125 209.671875 165.722656 C 210.074219 165.136719 210.488281 164.558594 210.921875 163.996094 C 211.355469 163.433594 211.800781 162.882812 212.265625 162.34375 C 212.730469 161.804688 213.210938 161.28125 213.703125 160.769531 C 214.199219 160.257812 214.707031 159.761719 215.230469 159.28125 C 215.753906 158.800781 216.289062 158.335938 216.839844 157.882812 C 217.386719 157.433594 217.949219 157 218.523438 156.578125 C 219.097656 156.160156 219.683594 155.757812 220.28125 155.375 C 220.878906 154.988281 221.488281 154.621094 222.105469 154.273438 C 222.726562 153.921875 223.351562 153.589844 223.992188 153.277344 C 224.628906 152.960938 225.273438 152.667969 225.929688 152.390625 C 226.585938 152.113281 227.246094 151.855469 227.914062 151.617188 C 228.585938 151.375 229.261719 151.15625 229.941406 150.957031 C 230.625 150.757812 231.3125 150.574219 232.003906 150.414062 C 232.695312 150.253906 233.394531 150.113281 234.09375 149.992188 C 234.792969 149.871094 235.496094 149.769531 236.203125 149.691406 C 236.910156 149.609375 237.617188 149.550781 238.328125 149.507812 C 239.035156 149.46875 239.746094 149.449219 240.457031 149.449219 C 241.15625 149.449219 241.898438 149.472656 242.628906 149.511719 Z M 242.628906 149.511719 " fill-opacity="0.7765" fill-rule="evenodd"/><g clip-path="url(#d787d307f2)"><path fill="#92278f" d="M 256.035156 182.703125 C 256.816406 194.605469 254.410156 205.386719 256.652344 213.027344 C 260.484375 226.085938 277.480469 237.914062 269.539062 244.632812 C 267.027344 246.644531 262.703125 246.777344 260.167969 248.753906 C 256.128906 251.902344 258.890625 255.308594 259.25 257.765625 C 259.421875 258.933594 258.363281 260.808594 254.871094 263.085938 C 257.507812 265.03125 257.265625 266.679688 256.324219 268.195312 C 255.039062 269.074219 253.71875 269.894531 252.359375 270.65625 C 251 271.417969 249.609375 272.117188 248.183594 272.753906 C 246.761719 273.386719 245.3125 273.957031 243.839844 274.464844 C 242.367188 274.96875 240.871094 275.40625 239.359375 275.773438 C 237.84375 276.144531 236.316406 276.445312 234.777344 276.675781 C 233.238281 276.90625 231.6875 277.070312 230.132812 277.160156 C 228.578125 277.253906 227.023438 277.273438 225.464844 277.226562 C 223.90625 277.175781 222.355469 277.058594 220.808594 276.867188 C 219.261719 276.679688 217.726562 276.417969 216.203125 276.089844 C 214.679688 275.761719 213.175781 275.367188 211.6875 274.902344 C 210.199219 274.4375 208.738281 273.910156 207.296875 273.3125 C 205.859375 272.714844 204.449219 272.054688 203.070312 271.332031 C 201.691406 270.609375 200.347656 269.824219 199.039062 268.976562 C 197.730469 268.132812 196.460938 267.230469 195.234375 266.269531 C 194.007812 265.3125 192.824219 264.296875 191.691406 263.230469 C 190.554688 262.164062 189.46875 261.046875 188.433594 259.882812 C 187.398438 258.71875 186.421875 257.507812 185.496094 256.257812 C 184.570312 255.003906 183.703125 253.710938 182.894531 252.378906 C 182.085938 251.046875 181.339844 249.679688 180.65625 248.28125 C 179.96875 246.882812 179.347656 245.457031 178.792969 244 C 178.238281 242.546875 177.75 241.066406 177.328125 239.570312 C 176.90625 238.070312 176.550781 236.554688 176.265625 235.023438 C 175.980469 233.492188 175.765625 231.949219 175.621094 230.398438 C 175.472656 228.847656 175.398438 227.292969 175.394531 225.734375 C 175.386719 224.175781 175.453125 222.621094 175.585938 221.070312 C 175.722656 219.519531 175.929688 217.976562 176.203125 216.441406 C 176.476562 214.910156 176.820312 213.390625 177.234375 211.890625 C 177.644531 210.386719 178.125 208.90625 178.671875 207.449219 C 179.214844 205.988281 179.828125 204.558594 180.503906 203.152344 C 181.179688 201.75 181.914062 200.378906 182.714844 199.042969 C 183.515625 197.707031 184.371094 196.40625 185.289062 195.148438 C 186.207031 193.886719 187.179688 192.671875 188.203125 191.5 C 189.230469 190.328125 190.308594 189.207031 191.4375 188.132812 C 192.566406 187.058594 193.738281 186.035156 194.960938 185.066406 C 196.179688 184.097656 197.441406 183.1875 198.746094 182.335938 C 200.046875 181.480469 201.386719 180.6875 202.761719 179.953125 C 204.136719 179.21875 205.542969 178.550781 206.976562 177.945312 C 208.414062 177.339844 209.871094 176.796875 211.355469 176.324219 C 212.839844 175.851562 214.34375 175.445312 215.863281 175.105469 C 217.386719 174.769531 218.917969 174.5 220.464844 174.300781 C 222.007812 174.097656 223.558594 173.96875 225.117188 173.910156 C 226.671875 173.851562 228.230469 173.859375 229.785156 173.941406 C 231.339844 174.023438 232.890625 174.175781 234.433594 174.394531 C 235.976562 174.617188 237.503906 174.90625 239.019531 175.265625 C 240.535156 175.625 242.035156 176.054688 243.511719 176.546875 C 244.988281 177.042969 246.441406 177.601562 247.867188 178.230469 C 249.292969 178.855469 250.6875 179.542969 252.054688 180.296875 C 253.417969 181.046875 254.746094 181.859375 256.035156 182.734375 Z M 256.035156 182.703125 " fill-opacity="0.7765" fill-rule="evenodd"/></g><g clip-path="url(#b439d61dc2)"><path fill="#007fc6" d="M 244.96875 296.921875 C 225.328125 304.914062 199.039062 278.101562 195.5 332.785156 C 182.734375 324.402344 169.203125 317.515625 154.910156 312.128906 C 154.320312 311.265625 153.757812 310.382812 153.226562 309.480469 C 152.691406 308.578125 152.1875 307.664062 151.710938 306.730469 C 151.234375 305.796875 150.789062 304.851562 150.371094 303.890625 C 149.953125 302.929688 149.566406 301.957031 149.210938 300.972656 C 148.855469 299.988281 148.527344 298.992188 148.234375 297.988281 C 147.941406 296.984375 147.679688 295.972656 147.449219 294.949219 C 147.21875 293.929688 147.019531 292.902344 146.851562 291.867188 C 146.6875 290.832031 146.550781 289.796875 146.449219 288.753906 C 146.347656 287.710938 146.28125 286.667969 146.246094 285.621094 C 146.207031 284.574219 146.203125 283.527344 146.234375 282.480469 C 146.265625 281.433594 146.324219 280.390625 146.421875 279.347656 C 146.515625 278.304688 146.640625 277.265625 146.800781 276.230469 C 146.960938 275.195312 147.152344 274.167969 147.378906 273.144531 C 147.601562 272.121094 147.855469 271.105469 148.144531 270.097656 C 148.433594 269.09375 148.75 268.09375 149.101562 267.109375 C 149.449219 266.121094 149.832031 265.148438 150.242188 264.183594 C 150.652344 263.21875 151.09375 262.269531 151.5625 261.335938 C 152.035156 260.398438 152.53125 259.480469 153.0625 258.574219 C 153.589844 257.671875 154.144531 256.785156 154.726562 255.914062 C 155.3125 255.042969 155.921875 254.195312 156.558594 253.363281 C 157.195312 252.53125 157.855469 251.71875 158.542969 250.929688 C 159.230469 250.140625 159.941406 249.371094 160.675781 248.625 C 161.410156 247.882812 162.167969 247.160156 162.949219 246.460938 C 163.730469 245.761719 164.53125 245.089844 165.355469 244.441406 C 166.175781 243.792969 167.019531 243.171875 167.878906 242.574219 C 168.742188 241.980469 169.621094 241.414062 170.515625 240.871094 C 171.414062 240.332031 172.328125 239.820312 173.257812 239.335938 C 174.183594 238.851562 175.128906 238.398438 176.085938 237.972656 C 177.042969 237.550781 178.011719 237.15625 178.996094 236.792969 C 179.976562 236.425781 180.96875 236.09375 181.972656 235.792969 C 182.972656 235.492188 183.984375 235.222656 185.003906 234.980469 C 186.023438 234.742188 187.050781 234.535156 188.085938 234.363281 C 189.117188 234.1875 190.152344 234.046875 191.195312 233.9375 C 192.238281 233.828125 193.28125 233.75 194.328125 233.707031 C 195.375 233.660156 196.421875 233.648438 197.46875 233.671875 C 198.515625 233.691406 199.558594 233.746094 200.601562 233.832031 C 201.648438 233.917969 202.6875 234.039062 203.722656 234.191406 C 204.757812 234.339844 205.789062 234.523438 206.816406 234.742188 C 207.839844 234.957031 208.855469 235.203125 209.867188 235.484375 C 210.875 235.765625 211.875 236.074219 212.863281 236.417969 C 213.855469 236.757812 214.832031 237.132812 215.796875 237.535156 C 216.765625 237.9375 217.71875 238.371094 218.65625 238.835938 C 219.597656 239.296875 220.519531 239.789062 221.429688 240.308594 C 222.339844 240.828125 223.230469 241.378906 224.105469 241.953125 C 224.976562 242.53125 225.832031 243.132812 226.671875 243.765625 C 227.507812 244.394531 228.324219 245.050781 229.117188 245.730469 C 229.914062 246.410156 230.6875 247.117188 231.441406 247.84375 C 232.191406 248.574219 232.917969 249.324219 233.625 250.101562 C 234.328125 250.875 235.007812 251.671875 235.664062 252.488281 C 236.316406 253.304688 236.945312 254.144531 237.546875 255 C 238.148438 255.855469 238.726562 256.730469 239.273438 257.621094 C 239.820312 258.515625 240.339844 259.425781 240.832031 260.347656 C 241.320312 261.273438 241.78125 262.214844 242.214844 263.167969 C 242.648438 264.121094 243.046875 265.085938 243.421875 266.066406 C 243.792969 267.046875 244.132812 268.035156 244.441406 269.035156 C 244.753906 270.035156 245.03125 271.042969 245.277344 272.0625 C 245.523438 273.078125 245.738281 274.105469 245.921875 275.136719 C 246.101562 276.164062 246.253906 277.203125 246.371094 278.242188 C 246.488281 279.28125 246.574219 280.324219 246.625 281.371094 C 246.679688 282.417969 246.699219 283.464844 246.683594 284.511719 C 246.671875 285.558594 246.625 286.601562 246.546875 287.648438 C 246.46875 288.691406 246.359375 289.730469 246.214844 290.769531 C 246.070312 291.804688 245.894531 292.839844 245.6875 293.863281 C 245.480469 294.890625 245.242188 295.910156 244.96875 296.921875 Z M 244.96875 296.921875 " fill-opacity="0.7765" fill-rule="evenodd"/></g><g clip-path="url(#c3b5f82222)"><path fill="#01a6e6" d="M 216.136719 297.199219 C 205.761719 297.636719 197.390625 303.609375 195.5 332.785156 C 182.804688 324.449219 169.355469 317.59375 155.148438 312.214844 C 155.191406 310.441406 155.378906 308.683594 155.707031 306.941406 C 156.039062 305.199219 156.507812 303.496094 157.117188 301.828125 C 157.722656 300.164062 158.464844 298.558594 159.335938 297.011719 C 160.207031 295.464844 161.199219 294.003906 162.308594 292.621094 C 163.417969 291.238281 164.636719 289.953125 165.957031 288.769531 C 167.277344 287.585938 168.6875 286.515625 170.179688 285.5625 C 171.675781 284.605469 173.242188 283.78125 174.871094 283.082031 C 176.503906 282.382812 178.179688 281.824219 179.902344 281.398438 C 181.625 280.976562 183.371094 280.695312 185.136719 280.554688 C 186.90625 280.414062 188.675781 280.421875 190.441406 280.574219 C 192.210938 280.722656 193.953125 281.015625 195.675781 281.453125 C 197.394531 281.886719 199.066406 282.460938 200.695312 283.167969 C 202.320312 283.878906 203.878906 284.714844 205.367188 285.679688 C 206.855469 286.640625 208.257812 287.71875 209.570312 288.914062 C 210.882812 290.105469 212.089844 291.398438 213.191406 292.789062 C 214.292969 294.179688 215.273438 295.648438 216.136719 297.199219 Z M 216.136719 297.199219 " fill-opacity="0.7765" fill-rule="evenodd"/></g><path fill="#2063b2" d="M 263.589844 247.082031 C 262.355469 247.4375 261.214844 247.984375 260.167969 248.722656 C 256.128906 251.871094 258.890625 255.277344 259.25 257.734375 C 259.421875 258.902344 258.363281 260.777344 254.871094 263.054688 C 258.90625 266.03125 256.191406 268.3125 254.566406 270.503906 C 247.015625 275.949219 257.523438 287.746094 245.0625 296.890625 C 232.484375 302.066406 217.195312 292.929688 206.863281 299.945312 C 206.703125 299 206.566406 298.054688 206.460938 297.101562 C 206.355469 296.152344 206.28125 295.195312 206.234375 294.242188 C 206.191406 293.285156 206.175781 292.328125 206.1875 291.371094 C 206.203125 290.410156 206.246094 289.457031 206.316406 288.5 C 206.390625 287.546875 206.492188 286.59375 206.625 285.648438 C 206.757812 284.699219 206.917969 283.753906 207.109375 282.816406 C 207.300781 281.878906 207.519531 280.945312 207.765625 280.023438 C 208.015625 279.097656 208.292969 278.179688 208.597656 277.273438 C 208.902344 276.367188 209.234375 275.46875 209.597656 274.582031 C 209.957031 273.695312 210.34375 272.820312 210.757812 271.957031 C 211.175781 271.09375 211.617188 270.246094 212.085938 269.410156 C 212.550781 268.574219 213.046875 267.753906 213.5625 266.949219 C 214.082031 266.144531 214.625 265.355469 215.191406 264.582031 C 215.761719 263.8125 216.351562 263.058594 216.964844 262.324219 C 217.582031 261.589844 218.214844 260.875 218.875 260.179688 C 219.535156 259.484375 220.214844 258.8125 220.914062 258.15625 C 221.613281 257.503906 222.335938 256.875 223.074219 256.265625 C 223.8125 255.65625 224.570312 255.074219 225.347656 254.511719 C 226.125 253.949219 226.914062 253.414062 227.726562 252.902344 C 228.535156 252.390625 229.359375 251.902344 230.199219 251.441406 C 231.039062 250.980469 231.890625 250.546875 232.757812 250.136719 C 233.621094 249.730469 234.5 249.347656 235.390625 248.996094 C 236.28125 248.640625 237.179688 248.316406 238.089844 248.015625 C 239 247.71875 239.917969 247.449219 240.847656 247.210938 C 241.773438 246.96875 242.707031 246.757812 243.648438 246.574219 C 244.585938 246.390625 245.53125 246.238281 246.480469 246.113281 C 247.429688 245.988281 248.382812 245.894531 249.339844 245.828125 C 250.292969 245.761719 251.25 245.726562 252.207031 245.71875 C 253.167969 245.714844 254.125 245.738281 255.078125 245.792969 C 256.035156 245.84375 256.988281 245.925781 257.941406 246.039062 C 258.890625 246.152344 259.839844 246.292969 260.78125 246.464844 C 261.722656 246.636719 262.660156 246.835938 263.589844 247.066406 Z M 263.589844 247.082031 " fill-opacity="0.7765" fill-rule="evenodd"/><path fill="#12bcbc" d="M 117.535156 247.664062 C 118.125 247.664062 118.710938 247.636719 119.296875 247.578125 C 119.882812 247.523438 120.464844 247.433594 121.039062 247.320312 C 121.617188 247.207031 122.1875 247.0625 122.75 246.894531 C 123.3125 246.722656 123.867188 246.523438 124.410156 246.300781 C 124.953125 246.074219 125.484375 245.824219 126.003906 245.546875 C 126.523438 245.269531 127.027344 244.96875 127.515625 244.640625 C 128.007812 244.3125 128.480469 243.964844 128.933594 243.589844 C 129.386719 243.21875 129.824219 242.824219 130.242188 242.40625 C 130.65625 241.992188 131.050781 241.558594 131.425781 241.101562 C 131.796875 240.648438 132.148438 240.175781 132.476562 239.6875 C 132.800781 239.199219 133.105469 238.695312 133.382812 238.175781 C 133.660156 237.65625 133.910156 237.125 134.136719 236.582031 C 134.359375 236.039062 134.558594 235.484375 134.730469 234.921875 C 134.898438 234.359375 135.042969 233.789062 135.15625 233.214844 C 135.273438 232.636719 135.359375 232.054688 135.417969 231.46875 C 135.472656 230.882812 135.503906 230.296875 135.503906 229.710938 C 135.503906 229.121094 135.472656 228.535156 135.417969 227.949219 C 135.359375 227.363281 135.273438 226.785156 135.160156 226.207031 C 135.042969 225.628906 134.902344 225.058594 134.730469 224.496094 C 134.558594 223.933594 134.363281 223.382812 134.136719 222.839844 C 133.914062 222.296875 133.660156 221.765625 133.382812 221.246094 C 133.105469 220.726562 132.804688 220.222656 132.476562 219.734375 C 132.152344 219.246094 131.800781 218.773438 131.429688 218.320312 C 131.054688 217.863281 130.660156 217.429688 130.246094 217.011719 C 129.828125 216.597656 129.394531 216.203125 128.9375 215.828125 C 128.484375 215.457031 128.011719 215.105469 127.523438 214.78125 C 127.035156 214.453125 126.53125 214.152344 126.011719 213.875 C 125.492188 213.597656 124.960938 213.347656 124.417969 213.121094 C 123.875 212.894531 123.320312 212.699219 122.757812 212.527344 C 122.195312 212.355469 121.625 212.214844 121.046875 212.097656 C 120.472656 211.984375 119.890625 211.898438 119.304688 211.839844 C 118.71875 211.78125 118.132812 211.753906 117.542969 211.753906 C 116.957031 211.753906 116.367188 211.78125 115.78125 211.839844 C 115.199219 211.898438 114.617188 211.984375 114.039062 212.097656 C 113.460938 212.214844 112.890625 212.355469 112.328125 212.527344 C 111.765625 212.699219 111.210938 212.898438 110.667969 213.121094 C 110.125 213.347656 109.59375 213.597656 109.074219 213.875 C 108.558594 214.152344 108.054688 214.457031 107.5625 214.78125 C 107.074219 215.109375 106.601562 215.460938 106.148438 215.832031 C 105.691406 216.207031 105.257812 216.601562 104.84375 217.015625 C 104.425781 217.433594 104.03125 217.867188 103.660156 218.324219 C 103.285156 218.777344 102.933594 219.25 102.609375 219.738281 C 102.28125 220.226562 101.980469 220.730469 101.703125 221.25 C 101.425781 221.769531 101.175781 222.300781 100.949219 222.84375 C 100.722656 223.386719 100.527344 223.941406 100.355469 224.503906 C 100.183594 225.066406 100.042969 225.636719 99.929688 226.214844 C 99.8125 226.789062 99.726562 227.371094 99.671875 227.957031 C 99.613281 228.542969 99.585938 229.128906 99.585938 229.71875 C 99.585938 230.304688 99.617188 230.890625 99.675781 231.476562 C 99.734375 232.058594 99.820312 232.640625 99.9375 233.214844 C 100.050781 233.792969 100.195312 234.359375 100.367188 234.921875 C 100.539062 235.484375 100.734375 236.035156 100.960938 236.578125 C 101.1875 237.121094 101.4375 237.652344 101.714844 238.171875 C 101.992188 238.6875 102.296875 239.191406 102.621094 239.679688 C 102.949219 240.167969 103.296875 240.640625 103.671875 241.09375 C 104.042969 241.546875 104.4375 241.980469 104.855469 242.398438 C 105.269531 242.8125 105.703125 243.207031 106.160156 243.578125 C 106.613281 243.953125 107.082031 244.300781 107.570312 244.628906 C 108.058594 244.953125 108.5625 245.257812 109.082031 245.535156 C 109.597656 245.8125 110.128906 246.0625 110.671875 246.289062 C 111.214844 246.515625 111.765625 246.710938 112.328125 246.882812 C 112.890625 247.054688 113.460938 247.199219 114.035156 247.3125 C 114.613281 247.429688 115.191406 247.515625 115.777344 247.574219 C 116.363281 247.632812 116.949219 247.664062 117.535156 247.664062 Z M 117.535156 247.664062 " fill-opacity="0.7765" fill-rule="evenodd"/><path fill="#00b9f1" d="M 155.148438 272.65625 C 155.6875 272.660156 156.222656 272.636719 156.757812 272.582031 C 157.289062 272.53125 157.820312 272.457031 158.347656 272.351562 C 158.875 272.25 159.394531 272.121094 159.910156 271.964844 C 160.421875 271.8125 160.929688 271.632812 161.425781 271.429688 C 161.921875 271.222656 162.40625 270.996094 162.882812 270.742188 C 163.355469 270.492188 163.816406 270.21875 164.261719 269.921875 C 164.710938 269.625 165.140625 269.304688 165.558594 268.964844 C 165.972656 268.625 166.371094 268.265625 166.75 267.890625 C 167.132812 267.511719 167.492188 267.113281 167.835938 266.699219 C 168.175781 266.285156 168.496094 265.855469 168.796875 265.410156 C 169.09375 264.964844 169.371094 264.503906 169.625 264.03125 C 169.878906 263.558594 170.109375 263.074219 170.316406 262.582031 C 170.523438 262.085938 170.703125 261.582031 170.863281 261.066406 C 171.019531 260.554688 171.148438 260.035156 171.253906 259.507812 C 171.359375 258.984375 171.441406 258.453125 171.496094 257.917969 C 171.546875 257.382812 171.574219 256.847656 171.578125 256.3125 C 171.578125 255.777344 171.550781 255.238281 171.5 254.707031 C 171.449219 254.171875 171.371094 253.640625 171.269531 253.113281 C 171.164062 252.589844 171.035156 252.066406 170.878906 251.554688 C 170.726562 251.039062 170.542969 250.535156 170.339844 250.039062 C 170.136719 249.542969 169.90625 249.058594 169.65625 248.585938 C 169.402344 248.109375 169.128906 247.652344 168.832031 247.203125 C 168.53125 246.757812 168.214844 246.324219 167.875 245.910156 C 167.535156 245.496094 167.175781 245.097656 166.796875 244.71875 C 166.417969 244.335938 166.019531 243.976562 165.605469 243.636719 C 165.191406 243.292969 164.761719 242.976562 164.316406 242.675781 C 163.867188 242.378906 163.410156 242.101562 162.9375 241.847656 C 162.464844 241.59375 161.980469 241.363281 161.484375 241.160156 C 160.988281 240.953125 160.484375 240.769531 159.96875 240.613281 C 159.457031 240.457031 158.9375 240.328125 158.410156 240.222656 C 157.882812 240.117188 157.351562 240.039062 156.820312 239.984375 C 156.285156 239.929688 155.75 239.90625 155.210938 239.902344 C 154.675781 239.902344 154.140625 239.929688 153.605469 239.980469 C 153.070312 240.035156 152.539062 240.113281 152.015625 240.214844 C 151.488281 240.320312 150.96875 240.449219 150.453125 240.605469 C 149.941406 240.761719 149.433594 240.941406 148.9375 241.144531 C 148.441406 241.351562 147.957031 241.582031 147.484375 241.832031 C 147.011719 242.085938 146.550781 242.359375 146.105469 242.660156 C 145.65625 242.957031 145.226562 243.277344 144.8125 243.617188 C 144.398438 243.957031 144 244.316406 143.621094 244.695312 C 143.238281 245.074219 142.878906 245.472656 142.539062 245.886719 C 142.199219 246.300781 141.878906 246.730469 141.582031 247.179688 C 141.28125 247.625 141.007812 248.082031 140.753906 248.558594 C 140.5 249.03125 140.269531 249.515625 140.066406 250.011719 C 139.859375 250.507812 139.679688 251.011719 139.523438 251.523438 C 139.367188 252.039062 139.234375 252.558594 139.132812 253.085938 C 139.027344 253.609375 138.949219 254.140625 138.894531 254.675781 C 138.84375 255.210938 138.816406 255.746094 138.816406 256.28125 C 138.816406 256.816406 138.84375 257.351562 138.898438 257.882812 C 138.949219 258.414062 139.03125 258.945312 139.136719 259.46875 C 139.238281 259.992188 139.371094 260.511719 139.527344 261.023438 C 139.683594 261.535156 139.863281 262.039062 140.066406 262.53125 C 140.273438 263.027344 140.5 263.511719 140.753906 263.980469 C 141.003906 264.453125 141.28125 264.914062 141.578125 265.359375 C 141.875 265.804688 142.191406 266.234375 142.53125 266.648438 C 142.871094 267.0625 143.230469 267.457031 143.605469 267.835938 C 143.984375 268.214844 144.378906 268.574219 144.792969 268.914062 C 145.207031 269.253906 145.636719 269.574219 146.078125 269.871094 C 146.523438 270.171875 146.980469 270.445312 147.453125 270.699219 C 147.925781 270.953125 148.40625 271.183594 148.902344 271.390625 C 149.394531 271.597656 149.898438 271.777344 150.410156 271.933594 C 150.921875 272.09375 151.4375 272.222656 151.964844 272.332031 C 152.488281 272.4375 153.015625 272.515625 153.546875 272.570312 C 154.082031 272.628906 154.613281 272.65625 155.148438 272.65625 Z M 155.148438 272.65625 " fill-opacity="0.7765" fill-rule="evenodd"/><path fill="#8dc63f" d="M 114.953125 203.96875 C 115.78125 203.96875 116.597656 203.890625 117.410156 203.726562 C 118.21875 203.566406 119.007812 203.328125 119.769531 203.011719 C 120.53125 202.695312 121.257812 202.308594 121.945312 201.851562 C 122.632812 201.390625 123.269531 200.871094 123.851562 200.285156 C 124.4375 199.703125 124.957031 199.066406 125.417969 198.378906 C 125.875 197.691406 126.265625 196.964844 126.582031 196.203125 C 126.898438 195.441406 127.136719 194.652344 127.296875 193.84375 C 127.457031 193.03125 127.539062 192.214844 127.539062 191.386719 C 127.539062 190.5625 127.457031 189.742188 127.296875 188.933594 C 127.132812 188.121094 126.894531 187.335938 126.578125 186.570312 C 126.261719 185.808594 125.875 185.082031 125.414062 184.394531 C 124.957031 183.707031 124.433594 183.074219 123.851562 182.488281 C 123.265625 181.90625 122.628906 181.382812 121.941406 180.925781 C 121.253906 180.464844 120.527344 180.078125 119.765625 179.761719 C 119 179.445312 118.214844 179.207031 117.402344 179.046875 C 116.59375 178.886719 115.773438 178.804688 114.949219 178.804688 C 114.121094 178.804688 113.304688 178.886719 112.492188 179.046875 C 111.683594 179.210938 110.894531 179.449219 110.132812 179.765625 C 109.367188 180.082031 108.644531 180.46875 107.957031 180.929688 C 107.269531 181.390625 106.632812 181.910156 106.050781 182.496094 C 105.464844 183.078125 104.945312 183.714844 104.484375 184.402344 C 104.027344 185.089844 103.640625 185.816406 103.324219 186.578125 C 103.007812 187.34375 102.769531 188.128906 102.609375 188.941406 C 102.449219 189.75 102.367188 190.570312 102.371094 191.394531 C 102.371094 192.222656 102.453125 193.039062 102.613281 193.847656 C 102.777344 194.65625 103.015625 195.441406 103.332031 196.207031 C 103.648438 196.96875 104.039062 197.691406 104.496094 198.378906 C 104.957031 199.0625 105.476562 199.699219 106.0625 200.28125 C 106.644531 200.867188 107.28125 201.386719 107.96875 201.847656 C 108.65625 202.304688 109.378906 202.691406 110.140625 203.007812 C 110.90625 203.324219 111.691406 203.5625 112.5 203.726562 C 113.308594 203.886719 114.128906 203.96875 114.953125 203.96875 Z M 114.953125 203.96875 " fill-opacity="0.7765" fill-rule="evenodd"/><g clip-path="url(#797745da80)"><path fill="#ffd900" d="M 108.675781 160.125 C 108.675781 160.84375 108.605469 161.550781 108.46875 162.253906 C 108.328125 162.953125 108.121094 163.636719 107.847656 164.296875 C 107.574219 164.957031 107.238281 165.585938 106.839844 166.179688 C 106.441406 166.773438 105.992188 167.324219 105.484375 167.832031 C 104.980469 168.335938 104.429688 168.789062 103.835938 169.183594 C 103.238281 169.582031 102.609375 169.917969 101.949219 170.191406 C 101.289062 170.464844 100.609375 170.671875 99.90625 170.8125 C 99.203125 170.953125 98.496094 171.019531 97.78125 171.019531 C 97.066406 171.019531 96.355469 170.953125 95.65625 170.8125 C 94.953125 170.671875 94.269531 170.464844 93.609375 170.191406 C 92.949219 169.917969 92.320312 169.582031 91.726562 169.183594 C 91.132812 168.789062 90.582031 168.335938 90.074219 167.832031 C 89.570312 167.324219 89.117188 166.773438 88.71875 166.179688 C 88.324219 165.585938 87.988281 164.957031 87.710938 164.296875 C 87.4375 163.636719 87.230469 162.953125 87.09375 162.253906 C 86.953125 161.550781 86.882812 160.84375 86.882812 160.125 C 86.882812 159.410156 86.953125 158.703125 87.09375 158 C 87.230469 157.300781 87.4375 156.617188 87.710938 155.957031 C 87.988281 155.296875 88.324219 154.667969 88.71875 154.074219 C 89.117188 153.480469 89.570312 152.929688 90.074219 152.421875 C 90.582031 151.917969 91.132812 151.464844 91.726562 151.066406 C 92.320312 150.671875 92.949219 150.335938 93.609375 150.0625 C 94.269531 149.789062 94.953125 149.582031 95.65625 149.441406 C 96.355469 149.300781 97.066406 149.230469 97.78125 149.230469 C 98.496094 149.230469 99.203125 149.300781 99.90625 149.441406 C 100.609375 149.582031 101.289062 149.789062 101.949219 150.0625 C 102.609375 150.335938 103.238281 150.671875 103.835938 151.066406 C 104.429688 151.464844 104.980469 151.917969 105.484375 152.421875 C 105.992188 152.929688 106.441406 153.480469 106.839844 154.074219 C 107.238281 154.667969 107.574219 155.296875 107.847656 155.957031 C 108.121094 156.617188 108.328125 157.300781 108.46875 158 C 108.605469 158.703125 108.675781 159.410156 108.675781 160.125 Z M 108.675781 160.125 " fill-opacity="0.7765" fill-rule="nonzero"/></g><path fill="#009444" d="M 120.804688 140.164062 C 121.472656 140.164062 122.132812 140.101562 122.789062 139.972656 C 123.441406 139.839844 124.078125 139.648438 124.695312 139.394531 C 125.316406 139.136719 125.902344 138.824219 126.457031 138.453125 C 127.011719 138.082031 127.527344 137.664062 128 137.191406 C 128.472656 136.71875 128.894531 136.203125 129.265625 135.648438 C 129.636719 135.09375 129.953125 134.507812 130.207031 133.890625 C 130.464844 133.273438 130.65625 132.636719 130.789062 131.984375 C 130.917969 131.328125 130.984375 130.667969 130.984375 130 C 130.984375 129.332031 130.917969 128.667969 130.789062 128.015625 C 130.660156 127.359375 130.464844 126.722656 130.210938 126.105469 C 129.957031 125.488281 129.644531 124.902344 129.273438 124.347656 C 128.902344 123.789062 128.480469 123.277344 128.007812 122.804688 C 127.535156 122.332031 127.019531 121.910156 126.464844 121.539062 C 125.910156 121.167969 125.324219 120.851562 124.707031 120.597656 C 124.089844 120.339844 123.453125 120.148438 122.796875 120.019531 C 122.144531 119.886719 121.480469 119.820312 120.8125 119.820312 C 120.144531 119.820312 119.484375 119.886719 118.828125 120.015625 C 118.171875 120.148438 117.535156 120.339844 116.917969 120.59375 C 116.300781 120.851562 115.714844 121.164062 115.160156 121.535156 C 114.605469 121.90625 114.089844 122.328125 113.617188 122.800781 C 113.144531 123.273438 112.722656 123.785156 112.351562 124.339844 C 111.980469 124.898438 111.667969 125.484375 111.410156 126.101562 C 111.15625 126.71875 110.964844 127.355469 110.832031 128.007812 C 110.703125 128.664062 110.636719 129.324219 110.636719 129.992188 C 110.636719 130.660156 110.703125 131.320312 110.835938 131.976562 C 110.964844 132.628906 111.160156 133.265625 111.414062 133.882812 C 111.671875 134.5 111.984375 135.082031 112.355469 135.636719 C 112.726562 136.191406 113.148438 136.707031 113.617188 137.179688 C 114.089844 137.652344 114.601562 138.070312 115.15625 138.441406 C 115.710938 138.816406 116.296875 139.128906 116.914062 139.382812 C 117.53125 139.640625 118.164062 139.835938 118.820312 139.964844 C 119.472656 140.097656 120.136719 140.164062 120.804688 140.164062 Z M 120.804688 140.164062 " fill-opacity="0.7765" fill-rule="evenodd"/><path fill="#56ba48" d="M 124.257812 165.515625 C 124.699219 165.515625 125.132812 165.472656 125.566406 165.386719 C 126 165.300781 126.421875 165.171875 126.828125 165.003906 C 127.234375 164.835938 127.621094 164.628906 127.988281 164.382812 C 128.355469 164.136719 128.695312 163.859375 129.007812 163.546875 C 129.320312 163.234375 129.597656 162.898438 129.84375 162.53125 C 130.089844 162.164062 130.296875 161.777344 130.464844 161.367188 C 130.632812 160.960938 130.761719 160.539062 130.847656 160.109375 C 130.933594 159.675781 130.976562 159.238281 130.976562 158.796875 C 130.976562 158.355469 130.933594 157.917969 130.847656 157.484375 C 130.761719 157.054688 130.632812 156.632812 130.464844 156.226562 C 130.296875 155.816406 130.089844 155.429688 129.84375 155.0625 C 129.597656 154.699219 129.320312 154.359375 129.007812 154.046875 C 128.695312 153.734375 128.355469 153.457031 127.988281 153.210938 C 127.621094 152.964844 127.234375 152.757812 126.828125 152.589844 C 126.421875 152.421875 126 152.292969 125.566406 152.207031 C 125.132812 152.121094 124.699219 152.078125 124.257812 152.078125 C 123.816406 152.078125 123.378906 152.121094 122.945312 152.207031 C 122.511719 152.292969 122.09375 152.421875 121.683594 152.589844 C 121.277344 152.757812 120.890625 152.964844 120.523438 153.210938 C 120.15625 153.457031 119.816406 153.734375 119.503906 154.046875 C 119.191406 154.359375 118.914062 154.699219 118.667969 155.0625 C 118.421875 155.429688 118.214844 155.816406 118.046875 156.226562 C 117.878906 156.632812 117.75 157.054688 117.664062 157.484375 C 117.578125 157.917969 117.535156 158.355469 117.535156 158.796875 C 117.535156 159.238281 117.582031 159.675781 117.667969 160.105469 C 117.753906 160.539062 117.882812 160.957031 118.050781 161.367188 C 118.222656 161.773438 118.429688 162.160156 118.671875 162.527344 C 118.917969 162.890625 119.195312 163.230469 119.507812 163.542969 C 119.820312 163.855469 120.160156 164.132812 120.527344 164.378906 C 120.894531 164.625 121.28125 164.832031 121.6875 165 C 122.09375 165.167969 122.515625 165.296875 122.945312 165.382812 C 123.378906 165.472656 123.816406 165.515625 124.257812 165.515625 Z M 124.257812 165.515625 " fill-opacity="0.7765" fill-rule="evenodd"/><g clip-path="url(#2a3df45b9f)"><path fill="#fbad17" d="M 138.273438 122.792969 C 138.714844 122.792969 139.148438 122.75 139.582031 122.664062 C 140.015625 122.578125 140.4375 122.449219 140.84375 122.28125 C 141.25 122.113281 141.636719 121.90625 142.003906 121.660156 C 142.371094 121.414062 142.710938 121.136719 143.023438 120.824219 C 143.335938 120.511719 143.613281 120.171875 143.859375 119.804688 C 144.105469 119.441406 144.3125 119.050781 144.480469 118.644531 C 144.648438 118.238281 144.777344 117.816406 144.863281 117.382812 C 144.949219 116.953125 144.992188 116.515625 144.992188 116.074219 C 144.992188 115.632812 144.949219 115.195312 144.863281 114.761719 C 144.777344 114.332031 144.648438 113.910156 144.480469 113.503906 C 144.3125 113.09375 144.105469 112.707031 143.859375 112.339844 C 143.613281 111.972656 143.335938 111.636719 143.023438 111.324219 C 142.710938 111.011719 142.371094 110.734375 142.003906 110.488281 C 141.636719 110.242188 141.25 110.035156 140.84375 109.867188 C 140.4375 109.699219 140.015625 109.570312 139.582031 109.484375 C 139.148438 109.398438 138.714844 109.355469 138.273438 109.355469 C 137.832031 109.355469 137.394531 109.398438 136.960938 109.484375 C 136.527344 109.570312 136.109375 109.699219 135.699219 109.867188 C 135.292969 110.035156 134.90625 110.242188 134.539062 110.488281 C 134.171875 110.734375 133.832031 111.011719 133.519531 111.324219 C 133.207031 111.636719 132.929688 111.972656 132.683594 112.339844 C 132.4375 112.707031 132.230469 113.09375 132.0625 113.503906 C 131.894531 113.910156 131.765625 114.332031 131.679688 114.761719 C 131.59375 115.195312 131.550781 115.632812 131.550781 116.074219 C 131.554688 116.515625 131.597656 116.953125 131.683594 117.382812 C 131.769531 117.816406 131.898438 118.234375 132.066406 118.644531 C 132.238281 119.050781 132.445312 119.4375 132.6875 119.804688 C 132.933594 120.167969 133.210938 120.507812 133.523438 120.820312 C 133.835938 121.132812 134.175781 121.410156 134.542969 121.65625 C 134.910156 121.902344 135.296875 122.109375 135.703125 122.277344 C 136.109375 122.445312 136.53125 122.574219 136.960938 122.660156 C 137.394531 122.746094 137.832031 122.792969 138.273438 122.792969 Z M 138.273438 122.792969 " fill-opacity="0.7765" fill-rule="evenodd"/></g><path fill="#f15c22" d="M 96.996094 137.769531 C 97.328125 137.769531 97.660156 137.734375 97.984375 137.667969 C 98.3125 137.601562 98.628906 137.503906 98.9375 137.375 C 99.246094 137.246094 99.539062 137.089844 99.8125 136.902344 C 100.089844 136.714844 100.347656 136.503906 100.582031 136.265625 C 100.816406 136.03125 101.027344 135.773438 101.210938 135.496094 C 101.394531 135.214844 101.550781 134.921875 101.675781 134.613281 C 101.804688 134.304688 101.898438 133.988281 101.964844 133.660156 C 102.027344 133.332031 102.058594 133.003906 102.058594 132.667969 C 102.058594 132.335938 102.023438 132.003906 101.957031 131.679688 C 101.890625 131.351562 101.792969 131.035156 101.664062 130.726562 C 101.539062 130.417969 101.378906 130.125 101.195312 129.847656 C 101.007812 129.570312 100.796875 129.316406 100.558594 129.078125 C 100.324219 128.84375 100.066406 128.632812 99.789062 128.449219 C 99.511719 128.265625 99.21875 128.109375 98.910156 127.980469 C 98.601562 127.855469 98.28125 127.757812 97.957031 127.695312 C 97.628906 127.628906 97.296875 127.597656 96.964844 127.597656 C 96.628906 127.597656 96.300781 127.632812 95.972656 127.699219 C 95.644531 127.761719 95.328125 127.859375 95.019531 127.988281 C 94.710938 128.117188 94.417969 128.273438 94.140625 128.457031 C 93.863281 128.644531 93.609375 128.855469 93.371094 129.089844 C 93.136719 129.328125 92.925781 129.582031 92.738281 129.859375 C 92.554688 130.136719 92.398438 130.429688 92.269531 130.738281 C 92.144531 131.046875 92.046875 131.367188 91.980469 131.691406 C 91.917969 132.019531 91.882812 132.351562 91.882812 132.683594 C 91.886719 133.019531 91.917969 133.351562 91.984375 133.679688 C 92.050781 134.007812 92.148438 134.324219 92.277344 134.632812 C 92.40625 134.941406 92.566406 135.234375 92.75 135.511719 C 92.9375 135.789062 93.148438 136.046875 93.386719 136.285156 C 93.625 136.519531 93.882812 136.730469 94.160156 136.917969 C 94.441406 137.101562 94.734375 137.257812 95.042969 137.386719 C 95.351562 137.511719 95.671875 137.609375 96 137.671875 C 96.328125 137.738281 96.660156 137.769531 96.996094 137.769531 Z M 96.996094 137.769531 " fill-opacity="0.7765" fill-rule="evenodd"/><path fill="#fbad17" d="M 217.910156 189.652344 C 217.910156 191.046875 217.839844 192.433594 217.703125 193.820312 C 217.570312 195.203125 217.363281 196.578125 217.09375 197.945312 C 216.820312 199.308594 216.484375 200.65625 216.078125 201.988281 C 215.675781 203.320312 215.207031 204.628906 214.675781 205.917969 C 214.140625 207.203125 213.546875 208.460938 212.890625 209.6875 C 212.234375 210.914062 211.519531 212.105469 210.746094 213.265625 C 209.972656 214.421875 209.144531 215.539062 208.261719 216.613281 C 207.378906 217.691406 206.445312 218.71875 205.460938 219.703125 C 204.476562 220.6875 203.445312 221.621094 202.367188 222.503906 C 201.292969 223.386719 200.175781 224.214844 199.019531 224.988281 C 197.859375 225.761719 196.667969 226.476562 195.441406 227.132812 C 194.214844 227.789062 192.957031 228.382812 191.667969 228.917969 C 190.382812 229.449219 189.074219 229.917969 187.742188 230.320312 C 186.410156 230.726562 185.0625 231.0625 183.695312 231.335938 C 182.332031 231.605469 180.957031 231.808594 179.570312 231.945312 C 178.183594 232.082031 176.796875 232.152344 175.402344 232.152344 C 174.011719 232.152344 172.621094 232.082031 171.238281 231.945312 C 169.851562 231.808594 168.476562 231.605469 167.109375 231.335938 C 165.746094 231.0625 164.398438 230.726562 163.066406 230.320312 C 161.730469 229.917969 160.421875 229.449219 159.136719 228.917969 C 157.851562 228.382812 156.59375 227.789062 155.367188 227.132812 C 154.136719 226.476562 152.945312 225.761719 151.789062 224.988281 C 150.628906 224.214844 149.515625 223.386719 148.4375 222.503906 C 147.363281 221.621094 146.332031 220.6875 145.347656 219.703125 C 144.363281 218.71875 143.429688 217.691406 142.546875 216.613281 C 141.664062 215.539062 140.835938 214.421875 140.0625 213.265625 C 139.289062 212.105469 138.574219 210.914062 137.917969 209.6875 C 137.261719 208.460938 136.664062 207.203125 136.132812 205.917969 C 135.601562 204.628906 135.132812 203.320312 134.726562 201.988281 C 134.324219 200.65625 133.984375 199.308594 133.714844 197.945312 C 133.441406 196.578125 133.238281 195.203125 133.101562 193.820312 C 132.964844 192.433594 132.898438 191.046875 132.898438 189.652344 C 132.898438 188.261719 132.964844 186.875 133.101562 185.488281 C 133.238281 184.101562 133.441406 182.726562 133.714844 181.363281 C 133.984375 179.996094 134.324219 178.648438 134.726562 177.316406 C 135.132812 175.984375 135.601562 174.675781 136.132812 173.390625 C 136.664062 172.105469 137.261719 170.847656 137.917969 169.621094 C 138.574219 168.394531 139.289062 167.199219 140.0625 166.042969 C 140.835938 164.886719 141.664062 163.769531 142.546875 162.691406 C 143.429688 161.617188 144.363281 160.585938 145.347656 159.601562 C 146.332031 158.617188 147.363281 157.683594 148.4375 156.800781 C 149.515625 155.917969 150.628906 155.089844 151.789062 154.316406 C 152.945312 153.542969 154.136719 152.828125 155.367188 152.175781 C 156.59375 151.519531 157.851562 150.921875 159.136719 150.390625 C 160.421875 149.859375 161.730469 149.390625 163.066406 148.984375 C 164.398438 148.582031 165.746094 148.242188 167.109375 147.972656 C 168.476562 147.699219 169.851562 147.496094 171.238281 147.359375 C 172.621094 147.222656 174.011719 147.15625 175.402344 147.15625 C 176.796875 147.15625 178.183594 147.222656 179.570312 147.359375 C 180.957031 147.496094 182.332031 147.699219 183.695312 147.972656 C 185.0625 148.242188 186.410156 148.582031 187.742188 148.984375 C 189.074219 149.390625 190.382812 149.859375 191.667969 150.390625 C 192.957031 150.921875 194.214844 151.519531 195.441406 152.175781 C 196.667969 152.828125 197.859375 153.542969 199.019531 154.316406 C 200.175781 155.089844 201.292969 155.917969 202.367188 156.800781 C 203.445312 157.683594 204.476562 158.617188 205.460938 159.601562 C 206.445312 160.585938 207.378906 161.617188 208.261719 162.691406 C 209.144531 163.769531 209.972656 164.886719 210.746094 166.042969 C 211.519531 167.199219 212.234375 168.394531 212.890625 169.621094 C 213.546875 170.847656 214.140625 172.105469 214.675781 173.390625 C 215.207031 174.675781 215.675781 175.984375 216.078125 177.316406 C 216.484375 178.648438 216.820312 179.996094 217.09375 181.363281 C 217.363281 182.726562 217.570312 184.101562 217.703125 185.488281 C 217.839844 186.875 217.910156 188.261719 217.910156 189.652344 Z M 217.910156 189.652344 " fill-opacity="0.7765" fill-rule="nonzero"/><path fill="#ec008b" d="M 198.886719 125.328125 C 219.253906 129.527344 236.320312 139.730469 246.382812 154.402344 C 246.296875 155.023438 246.191406 155.644531 246.066406 156.257812 C 245.941406 156.871094 245.800781 157.484375 245.636719 158.089844 C 245.472656 158.695312 245.292969 159.292969 245.09375 159.890625 C 244.894531 160.484375 244.675781 161.070312 244.441406 161.652344 C 244.203125 162.234375 243.949219 162.808594 243.679688 163.375 C 243.40625 163.9375 243.117188 164.496094 242.8125 165.042969 C 242.503906 165.589844 242.183594 166.128906 241.84375 166.65625 C 241.503906 167.183594 241.148438 167.699219 240.777344 168.207031 C 240.40625 168.710938 240.019531 169.203125 239.617188 169.6875 C 239.214844 170.167969 238.796875 170.636719 238.367188 171.09375 C 237.933594 171.546875 237.488281 171.988281 237.03125 172.417969 C 236.574219 172.847656 236.101562 173.257812 235.617188 173.660156 C 235.132812 174.058594 234.636719 174.441406 234.128906 174.808594 C 233.621094 175.179688 233.101562 175.53125 232.574219 175.867188 C 232.042969 176.203125 231.503906 176.523438 230.953125 176.824219 C 230.40625 177.128906 229.847656 177.414062 229.277344 177.679688 C 228.710938 177.949219 228.136719 178.199219 227.554688 178.433594 C 226.972656 178.664062 226.382812 178.878906 225.785156 179.074219 C 225.191406 179.269531 224.589844 179.449219 223.980469 179.605469 C 223.375 179.765625 222.761719 179.90625 222.148438 180.027344 C 221.53125 180.148438 220.914062 180.25 220.289062 180.332031 C 219.667969 180.414062 219.042969 180.476562 218.417969 180.519531 C 217.792969 180.566406 217.164062 180.589844 216.539062 180.59375 C 215.910156 180.597656 215.285156 180.585938 214.65625 180.550781 C 214.03125 180.515625 213.40625 180.464844 212.78125 180.390625 C 212.160156 180.320312 211.539062 180.226562 210.921875 180.117188 C 210.304688 180.003906 209.691406 179.875 209.082031 179.726562 C 208.472656 179.578125 207.867188 179.410156 207.269531 179.222656 C 206.667969 179.039062 206.078125 178.832031 205.488281 178.609375 C 204.902344 178.386719 204.324219 178.144531 203.753906 177.886719 C 203.183594 177.628906 202.617188 177.351562 202.0625 177.058594 C 201.511719 176.765625 200.964844 176.453125 200.429688 176.125 C 199.894531 175.796875 199.371094 175.453125 198.855469 175.09375 C 198.34375 174.734375 197.839844 174.359375 197.351562 173.96875 C 196.859375 173.578125 196.382812 173.171875 195.917969 172.75 C 195.449219 172.328125 195 171.894531 194.5625 171.445312 C 194.121094 170.996094 193.699219 170.535156 193.289062 170.058594 C 192.878906 169.585938 192.484375 169.097656 192.105469 168.597656 C 191.722656 168.097656 191.359375 167.585938 191.011719 167.066406 C 190.664062 166.542969 190.332031 166.011719 190.019531 165.46875 C 189.703125 164.925781 189.40625 164.375 189.125 163.8125 C 188.84375 163.253906 188.582031 162.683594 188.335938 162.105469 C 188.089844 161.527344 187.863281 160.945312 187.652344 160.351562 C 187.445312 159.761719 187.253906 159.164062 187.082031 158.5625 C 186.910156 157.957031 186.753906 157.351562 186.621094 156.738281 C 186.484375 156.125 186.371094 155.507812 186.273438 154.886719 C 186.175781 154.269531 186.101562 153.644531 186.042969 153.023438 C 185.984375 152.398438 185.945312 151.769531 185.925781 151.144531 C 185.90625 150.515625 185.910156 149.890625 185.929688 149.261719 C 185.949219 148.636719 185.988281 148.011719 186.046875 147.386719 C 186.105469 146.761719 186.183594 146.140625 186.277344 145.519531 C 186.375 144.898438 186.492188 144.285156 186.628906 143.671875 C 186.761719 143.058594 186.917969 142.449219 187.089844 141.847656 C 187.261719 141.246094 187.453125 140.648438 187.664062 140.054688 C 187.875 139.464844 188.101562 138.882812 188.347656 138.304688 C 188.59375 137.726562 188.859375 137.15625 189.140625 136.597656 C 189.421875 136.035156 189.71875 135.484375 190.035156 134.941406 C 190.351562 134.402344 190.683594 133.867188 191.03125 133.347656 C 191.378906 132.824219 191.746094 132.316406 192.125 131.816406 C 192.503906 131.316406 192.902344 130.832031 193.3125 130.355469 C 193.722656 129.882812 194.144531 129.421875 194.585938 128.972656 C 195.023438 128.523438 195.476562 128.089844 195.941406 127.667969 C 196.40625 127.25 196.886719 126.84375 197.378906 126.453125 C 197.867188 126.0625 198.371094 125.6875 198.886719 125.328125 Z M 198.886719 125.328125 " fill-opacity="0.7765" fill-rule="evenodd"/><path fill="#56ba48" d="M 161.09375 171.027344 C 161.925781 171.03125 162.757812 170.988281 163.589844 170.90625 C 164.417969 170.824219 165.242188 170.703125 166.058594 170.539062 C 166.878906 170.378906 167.6875 170.175781 168.484375 169.933594 C 169.28125 169.691406 170.066406 169.410156 170.835938 169.09375 C 171.609375 168.773438 172.359375 168.417969 173.097656 168.023438 C 173.832031 167.632812 174.546875 167.203125 175.238281 166.742188 C 175.933594 166.277344 176.601562 165.78125 177.246094 165.253906 C 177.890625 164.722656 178.507812 164.164062 179.097656 163.574219 C 179.6875 162.984375 180.246094 162.367188 180.777344 161.726562 C 181.304688 161.082031 181.800781 160.410156 182.265625 159.71875 C 182.730469 159.023438 183.15625 158.3125 183.550781 157.574219 C 183.941406 156.839844 184.300781 156.089844 184.617188 155.316406 C 184.9375 154.546875 185.21875 153.765625 185.460938 152.964844 C 185.703125 152.167969 185.90625 151.359375 186.066406 150.542969 C 186.230469 149.726562 186.351562 148.902344 186.433594 148.070312 C 186.515625 147.242188 186.558594 146.410156 186.558594 145.578125 C 186.558594 144.742188 186.515625 143.914062 186.433594 143.082031 C 186.351562 142.253906 186.230469 141.429688 186.066406 140.613281 C 185.90625 139.792969 185.703125 138.988281 185.460938 138.1875 C 185.21875 137.390625 184.9375 136.609375 184.621094 135.835938 C 184.300781 135.066406 183.945312 134.316406 183.550781 133.578125 C 183.160156 132.84375 182.730469 132.128906 182.265625 131.4375 C 181.804688 130.742188 181.308594 130.074219 180.78125 129.429688 C 180.25 128.785156 179.691406 128.167969 179.101562 127.582031 C 178.511719 126.992188 177.894531 126.433594 177.25 125.902344 C 176.605469 125.375 175.9375 124.878906 175.242188 124.414062 C 174.550781 123.953125 173.835938 123.523438 173.101562 123.128906 C 172.367188 122.738281 171.613281 122.382812 170.84375 122.0625 C 170.070312 121.742188 169.289062 121.464844 168.488281 121.222656 C 167.691406 120.980469 166.882812 120.777344 166.066406 120.613281 C 165.25 120.453125 164.425781 120.328125 163.59375 120.246094 C 162.765625 120.167969 161.933594 120.125 161.101562 120.125 C 160.265625 120.125 159.433594 120.167969 158.605469 120.246094 C 157.773438 120.328125 156.953125 120.453125 156.132812 120.613281 C 155.316406 120.777344 154.507812 120.980469 153.710938 121.21875 C 152.914062 121.460938 152.128906 121.742188 151.359375 122.0625 C 150.585938 122.382812 149.835938 122.738281 149.101562 123.128906 C 148.363281 123.523438 147.648438 123.949219 146.957031 124.414062 C 146.265625 124.878906 145.59375 125.371094 144.949219 125.902344 C 144.304688 126.429688 143.6875 126.988281 143.097656 127.578125 C 142.507812 128.167969 141.949219 128.785156 141.421875 129.429688 C 140.894531 130.074219 140.398438 130.742188 139.933594 131.4375 C 139.46875 132.128906 139.042969 132.84375 138.648438 133.578125 C 138.257812 134.3125 137.898438 135.066406 137.582031 135.835938 C 137.261719 136.605469 136.980469 137.390625 136.738281 138.1875 C 136.496094 138.984375 136.292969 139.792969 136.132812 140.613281 C 135.96875 141.429688 135.847656 142.253906 135.765625 143.082031 C 135.683594 143.910156 135.644531 144.742188 135.644531 145.578125 C 135.644531 146.410156 135.6875 147.242188 135.769531 148.070312 C 135.851562 148.898438 135.976562 149.722656 136.140625 150.539062 C 136.304688 151.355469 136.507812 152.164062 136.75 152.960938 C 136.992188 153.757812 137.273438 154.539062 137.59375 155.308594 C 137.910156 156.078125 138.269531 156.828125 138.660156 157.5625 C 139.054688 158.296875 139.484375 159.011719 139.945312 159.703125 C 140.410156 160.398438 140.90625 161.066406 141.433594 161.707031 C 141.960938 162.351562 142.519531 162.96875 143.109375 163.558594 C 143.699219 164.148438 144.316406 164.707031 144.960938 165.234375 C 145.601562 165.761719 146.269531 166.257812 146.964844 166.722656 C 147.65625 167.1875 148.371094 167.613281 149.105469 168.007812 C 149.839844 168.402344 150.589844 168.757812 151.359375 169.078125 C 152.128906 169.398438 152.914062 169.679688 153.710938 169.921875 C 154.507812 170.164062 155.3125 170.367188 156.128906 170.53125 C 156.945312 170.695312 157.769531 170.820312 158.597656 170.902344 C 159.429688 170.984375 160.257812 171.027344 161.09375 171.027344 Z M 161.09375 171.027344 " fill-opacity="0.7765" fill-rule="evenodd"/></svg>