<svg xmlns="http://www.w3.org/2000/svg" xmlns:xlink="http://www.w3.org/1999/xlink" width="500" zoomAndPan="magnify" viewBox="0 0 375 374.999991" height="500" preserveAspectRatio="xMidYMid meet" version="1.0"><defs><filter x="0%" y="0%" width="100%" height="100%" id="485aaf9b57"><feColorMatrix values="0 0 0 0 1 0 0 0 0 1 0 0 0 0 1 0 0 0 1 0" color-interpolation-filters="sRGB"/></filter><g/><mask id="cc340f1f98"><g filter="url(#485aaf9b57)"><rect x="-37.5" width="450" fill="#000000" y="-37.499999" height="449.999989" fill-opacity="0.949"/></g></mask><clipPath id="f95c64d406"><path d="M 0.269531 0.832031 L 231.046875 0.832031 L 231.046875 171 L 0.269531 171 Z M 0.269531 0.832031 " clip-rule="nonzero"/></clipPath><clipPath id="87317ccf42"><path d="M 37 155 L 224 155 L 224 231.605469 L 37 231.605469 Z M 37 155 " clip-rule="nonzero"/></clipPath><clipPath id="bcae4eede9"><rect x="0" width="232" y="0" height="232"/></clipPath><clipPath id="ab9b090328"><path d="M 177 176 L 256.234375 176 L 256.234375 261 L 177 261 Z M 177 176 " clip-rule="nonzero"/></clipPath><clipPath id="17c437e788"><path d="M 153 225 L 236 225 L 236 305.816406 L 153 305.816406 Z M 153 225 " clip-rule="nonzero"/></clipPath><clipPath id="7ac8df661f"><path d="M 161 263 L 211 263 L 211 305.816406 L 161 305.816406 Z M 161 263 " clip-rule="nonzero"/></clipPath><clipPath id="ba66f10778"><path d="M 105.339844 156 L 124 156 L 124 175 L 105.339844 175 Z M 105.339844 156 " clip-rule="nonzero"/></clipPath><clipPath id="25fe0ba241"><path d="M 141 123.859375 L 153 123.859375 L 153 135 L 141 135 Z M 141 123.859375 " clip-rule="nonzero"/></clipPath></defs><rect x="-37.5" width="450" fill="#ffffff" y="-37.499999" height="449.999989" fill-opacity="1"/><rect x="-37.5" width="450" fill="#ffffff" y="-37.499999" height="449.999989" fill-opacity="1"/><rect x="-37.5" width="450" fill="#ffffff" y="-37.499999" height="449.999989" fill-opacity="1"/><g mask="url(#cc340f1f98)"><g transform="matrix(1, 0, 0, 1, 72, 85)"><g clip-path="url(#bcae4eede9)"><path fill="#0292b7" d="M 9.25 160.9375 C 14.5 173.410156 21.875 184.765625 30.925781 194.550781 C 58.265625 192.121094 79.925781 184.34375 99.015625 175.703125 C 64.800781 186.285156 28.652344 186.386719 9.25 160.9375 " fill-opacity="1" fill-rule="nonzero"/><g clip-path="url(#f95c64d406)"><path fill="#f6f3ee" d="M 127.1875 162.148438 C 156.996094 147.789062 183.996094 137.839844 224.222656 155.40625 C 228.640625 143.171875 231.050781 129.976562 231.050781 116.21875 C 231.050781 52.488281 179.386719 0.824219 115.65625 0.824219 C 51.929688 0.824219 0.265625 52.488281 0.265625 116.21875 C 0.265625 128.734375 2.257812 140.78125 5.941406 152.066406 C 52.957031 177.007812 93.53125 172.625 127.1875 162.148438 " fill-opacity="1" fill-rule="nonzero"/></g><g clip-path="url(#87317ccf42)"><path fill="#0292b7" d="M 137.199219 190.109375 C 161.140625 173.824219 194.191406 160.539062 219.90625 165.757812 C 221.367188 162.679688 222.699219 159.53125 223.890625 156.316406 C 156.066406 150.265625 119.855469 216.078125 37.363281 200.984375 C 57.933594 219.996094 85.4375 231.613281 115.65625 231.613281 C 157.246094 231.613281 193.695312 209.609375 214.003906 176.609375 C 183.828125 172.171875 158.4375 180.414062 137.199219 190.109375 " fill-opacity="1" fill-rule="nonzero"/></g></g></g></g><g fill="#02084b" fill-opacity="1"><g transform="translate(79.110729, 208.169748)"><g><path d="M 0.199219 -4.304688 C -2.769531 -3.535156 -5.707031 -3.527344 -8.3125 -3.652344 L -21.1875 -4.214844 L 0.863281 -18.484375 L 1.105469 -23.691406 L -16.289062 -24.503906 C -18.675781 -24.617188 -21.917969 -25.09375 -24.234375 -25.925781 L -24.363281 -23.175781 C -21.980469 -23.753906 -18.78125 -23.96875 -16.320312 -23.851562 L -1.707031 -23.167969 L -25.070312 -8.023438 L -25.269531 -3.753906 L -8.34375 -2.964844 C -5.304688 -2.820312 -2.816406 -2.597656 0.0742188 -1.554688 Z M 0.199219 -4.304688 "/></g></g></g><g fill="#02084b" fill-opacity="1"><g transform="translate(79.960074, 184.844548)"><g><path d="M 3.617188 -11.476562 C 5.46875 -18.441406 3.96875 -23.636719 -0.703125 -24.804688 C -8.1875 -26.683594 -15.605469 -9.921875 -19.859375 -10.980469 C -22.246094 -11.578125 -22.25 -14.238281 -21.542969 -16.898438 C -20.84375 -19.523438 -18.496094 -23.132812 -14.164062 -26.886719 L -17.957031 -28.121094 C -19.734375 -25.109375 -21.105469 -21.917969 -21.925781 -18.835938 C -23.621094 -12.46875 -22.945312 -6.707031 -18.667969 -5.605469 C -12.761719 -4.144531 -7.03125 -18.207031 -1.363281 -18.949219 C 1.8125 -19.339844 3.988281 -16.25 3 -12.539062 C 2.238281 -9.671875 -0.171875 -6.117188 -4.835938 -2.523438 L -1.042969 -1.289062 C 1.1875 -4.742188 2.75 -8.222656 3.617188 -11.476562 Z M 3.617188 -11.476562 "/></g></g></g><g fill="#02084b" fill-opacity="1"><g transform="translate(85.475464, 162.596019)"><g><path d="M 3.179688 -6.101562 L -4.566406 -15.125 L 0.421875 -24.691406 L 2.28125 -24.496094 C 6.273438 -24.089844 9.792969 -22.375 11.304688 -21.671875 L 12.558594 -24.078125 L -14.667969 -26.84375 L -17.679688 -21.066406 L 0.167969 -0.320312 Z M -14.078125 -26.167969 L -0.320312 -24.753906 L -5.058594 -15.667969 Z M -14.078125 -26.167969 "/></g></g></g><g fill="#02084b" fill-opacity="1"><g transform="translate(96.861234, 140.358537)"><g><path d="M 2.785156 -3.289062 C -0.0390625 -4.492188 -2.367188 -6.277344 -4.359375 -7.964844 L -14.214844 -16.269531 L 11.960938 -14.117188 L 15.332031 -18.09375 L 2.042969 -29.355469 C 0.222656 -30.898438 -2.054688 -33.253906 -3.382812 -35.328125 L -5.160156 -33.226562 C -2.921875 -32.230469 -0.253906 -30.449219 1.621094 -28.855469 L 12.785156 -19.398438 L -14.96875 -21.652344 L -17.730469 -18.394531 L -4.800781 -7.4375 C -2.480469 -5.472656 -0.644531 -3.773438 1.007812 -1.1875 Z M 2.785156 -3.289062 "/></g></g></g><g fill="#02084b" fill-opacity="1"><g transform="translate(111.766368, 122.395401)"><g><path d="M 9.867188 -6.886719 C 15.585938 -11.273438 17.566406 -16.304688 14.574219 -20.082031 C 9.796875 -26.136719 -6.308594 -17.382812 -9.035156 -20.816406 C -10.5625 -22.746094 -8.941406 -24.859375 -6.757812 -26.535156 C -4.601562 -28.1875 -0.542969 -29.613281 5.183594 -29.945312 L 2.933594 -33.238281 C -0.3125 -31.933594 -3.351562 -30.242188 -5.878906 -28.304688 C -11.105469 -24.292969 -14.085938 -19.3125 -11.371094 -15.832031 C -7.582031 -11.070312 5.539062 -18.714844 10.480469 -15.84375 C 13.234375 -14.214844 13.074219 -10.441406 10.027344 -8.105469 C 7.671875 -6.296875 3.597656 -4.949219 -2.292969 -4.949219 L -0.0390625 -1.65625 C 3.835938 -3.03125 7.195312 -4.835938 9.867188 -6.886719 Z M 9.867188 -6.886719 "/></g></g></g><g fill="#02084b" fill-opacity="1"><g transform="translate(129.711376, 108.132426)"><g><path d="M 6.242188 -2.890625 L 5.609375 -14.769531 L 15.398438 -19.304688 L 16.753906 -18.015625 C 19.667969 -15.257812 21.410156 -11.753906 22.175781 -10.273438 L 24.640625 -11.414062 L 4.757812 -30.21875 L -1.15625 -27.476562 L 0.328125 -0.152344 Z M 4.8125 -29.324219 L 14.847656 -19.804688 L 5.550781 -15.5 Z M 4.8125 -29.324219 "/></g></g></g><g fill="#02084b" fill-opacity="1"><g transform="translate(153.288852, 97.853177)"><g/></g></g><g fill="#02084b" fill-opacity="1"><g transform="translate(160.480898, 95.720857)"><g/></g></g><g fill="#02084b" fill-opacity="1"><g transform="translate(166.023675, 92.443648)"><g><path d="M 37.144531 -25.585938 C 37.921875 -21.355469 37.757812 -17.550781 36.007812 -12.402344 L 32.183594 -1.085938 L 23.671875 -25.527344 L 17.15625 -25.496094 L 20.640625 -15.480469 L 15.746094 -1.011719 L 7.234375 -25.453125 L 0.71875 -25.421875 L 9.558594 -0.0429688 L 16.078125 -0.0742188 L 20.972656 -14.542969 L 25.996094 -0.117188 L 32.515625 -0.148438 L 41.125 -25.605469 Z M 37.144531 -25.585938 "/></g></g></g><g fill="#02084b" fill-opacity="1"><g transform="translate(204.952968, 93.086415)"><g><path d="M 11.589844 -11.289062 L 22.472656 -8.265625 L 22.648438 -8.894531 L 11.761719 -11.917969 L 14.464844 -21.648438 C 21.269531 -19.761719 23.867188 -18.027344 26.703125 -14.832031 L 27.765625 -18.671875 L 8.367188 -24.054688 L 1.570312 0.4375 L 21.492188 5.964844 L 22.558594 2.128906 C 18.105469 3.671875 14.800781 3.394531 8.035156 1.515625 Z M 11.589844 -11.289062 "/></g></g></g><g fill="#02084b" fill-opacity="1"><g transform="translate(225.897986, 98.817879)"><g><path d="M 18.246094 9.011719 L 20.007812 5.441406 C 15.378906 5.902344 12.480469 5.398438 7.609375 2.992188 L 18.5625 -19.179688 L 12.71875 -22.066406 L 1.460938 0.722656 Z M 18.246094 9.011719 "/></g></g></g><g fill="#02084b" fill-opacity="1"><g transform="translate(243.164043, 107.14463)"><g><path d="M 16.375 12.082031 L 18.738281 8.878906 C 14.101562 8.515625 11.335938 7.507812 6.964844 4.285156 L 21.648438 -15.617188 L 16.402344 -19.484375 L 1.3125 0.96875 Z M 16.375 12.082031 "/></g></g></g><g fill="#02084b" fill-opacity="1"><g transform="translate(258.705214, 118.060653)"><g><path d="M 2.902344 3.183594 C 4.460938 0.539062 6.53125 -1.542969 8.457031 -3.300781 L 17.957031 -12.011719 L 12.464844 13.675781 L 15.976562 17.527344 L 28.847656 5.792969 C 30.613281 4.183594 33.242188 2.230469 35.46875 1.179688 L 33.617188 -0.855469 C 32.339844 1.238281 30.230469 3.652344 28.410156 5.3125 L 17.597656 15.167969 L 23.394531 -12.066406 L 20.515625 -15.222656 L 7.992188 -3.808594 C 5.746094 -1.757812 3.828125 -0.15625 1.050781 1.152344 Z M 2.902344 3.183594 "/></g></g></g><g fill="#02084b" fill-opacity="1"><g transform="translate(274.57752, 135.254497)"><g><path d="M 16.175781 -0.0703125 L 21.910156 9.664062 L 22.46875 9.335938 L 16.738281 -0.402344 L 25.445312 -5.527344 C 29.027344 0.558594 29.691406 3.613281 29.511719 7.878906 L 32.945312 5.855469 L 22.730469 -11.492188 L 0.828125 1.402344 L 11.316406 19.222656 L 14.75 17.199219 C 10.472656 15.222656 8.289062 12.726562 4.726562 6.671875 Z M 16.175781 -0.0703125 "/></g></g></g><g fill="#02084b" fill-opacity="1"><g transform="translate(285.789412, 153.658842)"><g><path d="M 3.339844 11.558594 C 5.652344 18.386719 9.78125 21.878906 14.316406 20.265625 C 21.589844 17.691406 18.492188 -0.375 22.617188 -1.847656 C 24.9375 -2.671875 26.414062 -0.457031 27.296875 2.148438 C 28.167969 4.71875 28.210938 9.027344 26.679688 14.550781 L 30.523438 13.480469 C 30.332031 9.988281 29.710938 6.566406 28.6875 3.550781 C 26.574219 -2.691406 22.820312 -7.117188 18.648438 -5.664062 C 12.921875 -3.609375 15.933594 11.269531 11.625 15.023438 C 9.195312 17.109375 5.675781 15.738281 4.441406 12.105469 C 3.492188 9.292969 3.527344 5 5.425781 -0.574219 L 1.582031 0.496094 C 1.636719 4.605469 2.261719 8.371094 3.339844 11.558594 Z M 3.339844 11.558594 "/></g></g></g><g fill="#02084b" fill-opacity="1"><g transform="translate(293.409825, 175.357883)"><g><path d="M 0.835938 12.003906 C 1.660156 19.164062 4.960938 23.449219 9.734375 22.824219 C 17.382812 21.835938 18.15625 3.523438 22.5 2.949219 C 24.941406 2.632812 25.917969 5.109375 26.234375 7.839844 C 26.542969 10.539062 25.679688 14.757812 23.023438 19.839844 L 27.003906 19.597656 C 27.554688 16.144531 27.664062 12.671875 27.300781 9.503906 C 26.546875 2.957031 23.808594 -2.15625 19.421875 -1.617188 C 13.390625 -0.8125 13.207031 14.371094 8.203125 17.132812 C 5.390625 18.660156 2.238281 16.582031 1.796875 12.769531 C 1.457031 9.820312 2.398438 5.628906 5.425781 0.578125 L 1.441406 0.816406 C 0.632812 4.847656 0.449219 8.660156 0.835938 12.003906 Z M 0.835938 12.003906 "/></g></g></g><g fill="#02084b" fill-opacity="1"><g transform="translate(295.644883, 198.980229)"><g/></g></g><path fill="#f9ed32" d="M 184.558594 148.949219 C 185.207031 148.949219 185.847656 148.886719 186.484375 148.761719 C 187.121094 148.636719 187.738281 148.449219 188.335938 148.199219 C 188.9375 147.953125 189.503906 147.648438 190.042969 147.289062 C 190.582031 146.929688 191.082031 146.519531 191.539062 146.0625 C 192 145.601562 192.40625 145.105469 192.769531 144.566406 C 193.128906 144.027344 193.433594 143.460938 193.679688 142.859375 C 193.929688 142.261719 194.117188 141.644531 194.242188 141.007812 C 194.371094 140.375 194.433594 139.730469 194.433594 139.085938 C 194.433594 138.4375 194.371094 137.792969 194.246094 137.160156 C 194.121094 136.523438 193.933594 135.90625 193.6875 135.308594 C 193.4375 134.707031 193.132812 134.140625 192.773438 133.601562 C 192.414062 133.0625 192.007812 132.5625 191.546875 132.101562 C 191.089844 131.644531 190.59375 131.234375 190.054688 130.875 C 189.515625 130.515625 188.945312 130.210938 188.347656 129.960938 C 187.75 129.710938 187.132812 129.523438 186.496094 129.398438 C 185.863281 129.269531 185.21875 129.207031 184.570312 129.203125 C 183.925781 129.203125 183.28125 129.265625 182.644531 129.390625 C 182.011719 129.515625 181.394531 129.703125 180.792969 129.949219 C 180.195312 130.199219 179.625 130.5 179.085938 130.859375 C 178.546875 131.21875 178.046875 131.628906 177.585938 132.085938 C 177.128906 132.542969 176.71875 133.039062 176.359375 133.578125 C 175.996094 134.117188 175.691406 134.683594 175.441406 135.285156 C 175.195312 135.882812 175.003906 136.5 174.878906 137.132812 C 174.75 137.769531 174.6875 138.410156 174.683594 139.058594 C 174.683594 139.707031 174.746094 140.351562 174.875 140.984375 C 175 141.621094 175.1875 142.242188 175.4375 142.839844 C 175.683594 143.4375 175.988281 144.007812 176.347656 144.546875 C 176.707031 145.089844 177.117188 145.585938 177.574219 146.046875 C 178.035156 146.507812 178.53125 146.917969 179.070312 147.277344 C 179.609375 147.636719 180.179688 147.941406 180.777344 148.191406 C 181.378906 148.441406 181.996094 148.628906 182.632812 148.757812 C 183.269531 148.886719 183.910156 148.949219 184.558594 148.949219 Z M 184.558594 148.949219 " fill-opacity="0.7765" fill-rule="evenodd"/><path fill="#662d91" d="M 232.394531 156.5625 C 235.078125 159.671875 237.296875 163.085938 239.050781 166.800781 C 240.804688 170.515625 242.027344 174.394531 242.726562 178.445312 C 244.726562 190.148438 241.675781 200.984375 243.816406 208.265625 C 244.316406 209.898438 244.988281 211.457031 245.832031 212.945312 C 244.828125 213.527344 243.796875 214.050781 242.734375 214.515625 C 241.675781 214.980469 240.589844 215.382812 239.480469 215.722656 C 238.375 216.0625 237.25 216.339844 236.113281 216.550781 C 234.972656 216.761719 233.824219 216.90625 232.667969 216.984375 C 231.511719 217.0625 230.355469 217.078125 229.199219 217.023438 C 228.042969 216.96875 226.890625 216.851562 225.746094 216.664062 C 224.601562 216.480469 223.472656 216.230469 222.359375 215.914062 C 221.242188 215.597656 220.152344 215.21875 219.078125 214.78125 C 218.007812 214.339844 216.964844 213.839844 215.949219 213.277344 C 214.9375 212.71875 213.957031 212.101562 213.015625 211.429688 C 212.070312 210.753906 211.167969 210.03125 210.308594 209.253906 C 209.449219 208.476562 208.636719 207.65625 207.871094 206.785156 C 207.105469 205.917969 206.390625 205.003906 205.730469 204.054688 C 205.070312 203.101562 204.464844 202.117188 203.917969 201.097656 C 203.371094 200.074219 202.882812 199.027344 202.453125 197.949219 C 202.027344 196.871094 201.664062 195.773438 201.363281 194.65625 C 201.058594 193.539062 200.824219 192.40625 200.652344 191.261719 C 200.480469 190.113281 200.375 188.960938 200.335938 187.804688 C 200.296875 186.648438 200.324219 185.492188 200.417969 184.335938 C 200.511719 183.179688 200.671875 182.035156 200.898438 180.898438 C 201.121094 179.761719 201.414062 178.644531 201.765625 177.539062 C 202.121094 176.4375 202.535156 175.359375 203.011719 174.300781 C 203.492188 173.246094 204.027344 172.222656 204.625 171.230469 C 205.21875 170.234375 205.867188 169.277344 206.574219 168.359375 C 207.28125 167.441406 208.035156 166.5625 208.839844 165.730469 C 209.648438 164.898438 210.496094 164.117188 211.394531 163.382812 C 212.289062 162.644531 213.222656 161.964844 214.199219 161.335938 C 215.171875 160.710938 216.179688 160.140625 217.21875 159.628906 C 218.257812 159.117188 219.324219 158.664062 220.414062 158.277344 C 221.503906 157.886719 222.613281 157.558594 223.742188 157.296875 C 224.871094 157.035156 226.011719 156.839844 227.164062 156.707031 C 228.316406 156.578125 229.46875 156.511719 230.628906 156.511719 C 231.199219 156.511719 231.800781 156.53125 232.394531 156.5625 Z M 232.394531 156.5625 " fill-opacity="0.7765" fill-rule="evenodd"/><g clip-path="url(#ab9b090328)"><path fill="#92278f" d="M 243.316406 183.59375 C 243.949219 193.289062 241.992188 202.066406 243.816406 208.289062 C 246.9375 218.921875 260.777344 228.554688 254.3125 234.027344 C 252.265625 235.667969 248.742188 235.777344 246.679688 237.382812 C 243.390625 239.949219 245.640625 242.722656 245.929688 244.722656 C 246.070312 245.675781 245.210938 247.199219 242.367188 249.054688 C 244.511719 250.640625 244.316406 251.980469 243.550781 253.214844 C 242.503906 253.933594 241.425781 254.601562 240.320312 255.222656 C 239.210938 255.84375 238.078125 256.410156 236.921875 256.929688 C 235.761719 257.445312 234.582031 257.910156 233.382812 258.320312 C 232.183594 258.734375 230.964844 259.089844 229.734375 259.390625 C 228.5 259.691406 227.257812 259.9375 226.003906 260.125 C 224.746094 260.3125 223.488281 260.445312 222.21875 260.519531 C 220.953125 260.59375 219.6875 260.609375 218.417969 260.570312 C 217.148438 260.53125 215.886719 260.433594 214.625 260.28125 C 213.367188 260.125 212.117188 259.914062 210.875 259.648438 C 209.636719 259.378906 208.410156 259.058594 207.199219 258.679688 C 205.988281 258.300781 204.796875 257.871094 203.625 257.382812 C 202.453125 256.898438 201.304688 256.363281 200.179688 255.773438 C 199.054688 255.183594 197.960938 254.542969 196.894531 253.855469 C 195.828125 253.167969 194.796875 252.433594 193.796875 251.648438 C 192.796875 250.867188 191.835938 250.042969 190.910156 249.175781 C 189.988281 248.304688 189.105469 247.398438 188.261719 246.449219 C 187.417969 245.5 186.621094 244.515625 185.867188 243.496094 C 185.113281 242.472656 184.40625 241.421875 183.75 240.335938 C 183.089844 239.25 182.484375 238.140625 181.925781 237 C 181.367188 235.859375 180.863281 234.699219 180.410156 233.511719 C 179.957031 232.328125 179.558594 231.125 179.214844 229.902344 C 178.871094 228.683594 178.582031 227.449219 178.351562 226.203125 C 178.117188 224.953125 177.941406 223.699219 177.824219 222.4375 C 177.707031 221.171875 177.644531 219.90625 177.640625 218.636719 C 177.636719 217.371094 177.6875 216.105469 177.796875 214.839844 C 177.910156 213.574219 178.074219 212.320312 178.300781 211.070312 C 178.523438 209.824219 178.804688 208.585938 179.140625 207.363281 C 179.476562 206.140625 179.863281 204.933594 180.308594 203.746094 C 180.753906 202.558594 181.25 201.390625 181.800781 200.25 C 182.351562 199.105469 182.953125 197.988281 183.601562 196.898438 C 184.253906 195.8125 184.953125 194.753906 185.699219 193.726562 C 186.445312 192.703125 187.238281 191.710938 188.074219 190.757812 C 188.910156 189.804688 189.789062 188.890625 190.707031 188.015625 C 191.625 187.140625 192.582031 186.308594 193.574219 185.519531 C 194.570312 184.730469 195.597656 183.988281 196.660156 183.292969 C 197.71875 182.597656 198.808594 181.953125 199.929688 181.355469 C 201.050781 180.757812 202.191406 180.210938 203.363281 179.71875 C 204.53125 179.226562 205.71875 178.785156 206.929688 178.398438 C 208.136719 178.011719 209.359375 177.683594 210.597656 177.40625 C 211.839844 177.132812 213.085938 176.910156 214.34375 176.75 C 215.601562 176.585938 216.867188 176.480469 218.132812 176.433594 C 219.402344 176.382812 220.667969 176.394531 221.9375 176.457031 C 223.203125 176.523438 224.464844 176.648438 225.722656 176.828125 C 226.976562 177.007812 228.222656 177.246094 229.457031 177.539062 C 230.691406 177.832031 231.910156 178.179688 233.113281 178.582031 C 234.316406 178.984375 235.5 179.441406 236.664062 179.949219 C 237.824219 180.460938 238.960938 181.019531 240.070312 181.632812 C 241.183594 182.246094 242.265625 182.90625 243.316406 183.617188 Z M 243.316406 183.59375 " fill-opacity="0.7765" fill-rule="evenodd"/></g><g clip-path="url(#17c437e788)"><path fill="#007fc6" d="M 234.300781 276.609375 C 218.308594 283.121094 196.898438 261.285156 194.015625 305.816406 C 183.617188 298.992188 172.597656 293.382812 160.957031 288.996094 C 160.476562 288.292969 160.019531 287.574219 159.585938 286.839844 C 159.152344 286.105469 158.742188 285.359375 158.351562 284.601562 C 157.964844 283.839844 157.601562 283.070312 157.261719 282.289062 C 156.921875 281.503906 156.605469 280.714844 156.316406 279.910156 C 156.027344 279.109375 155.761719 278.300781 155.523438 277.480469 C 155.285156 276.664062 155.070312 275.835938 154.882812 275.003906 C 154.695312 274.175781 154.53125 273.335938 154.398438 272.496094 C 154.261719 271.652344 154.152344 270.808594 154.070312 269.960938 C 153.988281 269.109375 153.929688 268.261719 153.902344 267.40625 C 153.871094 266.554688 153.871094 265.703125 153.894531 264.851562 C 153.917969 264 153.96875 263.148438 154.046875 262.296875 C 154.121094 261.449219 154.226562 260.601562 154.355469 259.761719 C 154.484375 258.917969 154.640625 258.082031 154.824219 257.246094 C 155.007812 256.414062 155.214844 255.585938 155.449219 254.769531 C 155.683594 253.949219 155.941406 253.136719 156.226562 252.332031 C 156.511719 251.527344 156.824219 250.734375 157.15625 249.949219 C 157.492188 249.164062 157.851562 248.394531 158.234375 247.628906 C 158.617188 246.867188 159.023438 246.121094 159.453125 245.382812 C 159.882812 244.648438 160.335938 243.925781 160.808594 243.214844 C 161.285156 242.507812 161.78125 241.816406 162.300781 241.136719 C 162.820312 240.460938 163.359375 239.800781 163.917969 239.15625 C 164.476562 238.511719 165.054688 237.886719 165.65625 237.28125 C 166.253906 236.671875 166.871094 236.085938 167.507812 235.515625 C 168.140625 234.949219 168.792969 234.398438 169.464844 233.871094 C 170.132812 233.34375 170.820312 232.839844 171.519531 232.351562 C 172.222656 231.867188 172.9375 231.40625 173.667969 230.964844 C 174.398438 230.523438 175.144531 230.109375 175.898438 229.714844 C 176.65625 229.320312 177.425781 228.949219 178.203125 228.605469 C 178.984375 228.257812 179.773438 227.9375 180.574219 227.640625 C 181.371094 227.347656 182.179688 227.074219 182.996094 226.828125 C 183.816406 226.582031 184.636719 226.363281 185.46875 226.167969 C 186.300781 225.976562 187.132812 225.804688 187.976562 225.664062 C 188.816406 225.523438 189.660156 225.40625 190.507812 225.316406 C 191.359375 225.226562 192.207031 225.164062 193.058594 225.128906 C 193.910156 225.09375 194.765625 225.085938 195.617188 225.101562 C 196.46875 225.117188 197.320312 225.164062 198.171875 225.234375 C 199.019531 225.304688 199.867188 225.398438 200.710938 225.523438 C 201.554688 225.648438 202.394531 225.796875 203.230469 225.972656 C 204.0625 226.148438 204.890625 226.351562 205.714844 226.578125 C 206.535156 226.804688 207.351562 227.058594 208.15625 227.335938 C 208.960938 227.617188 209.757812 227.917969 210.546875 228.246094 C 211.332031 228.578125 212.109375 228.929688 212.875 229.304688 C 213.640625 229.683594 214.390625 230.082031 215.132812 230.507812 C 215.871094 230.929688 216.597656 231.378906 217.308594 231.847656 C 218.023438 232.316406 218.71875 232.808594 219.398438 233.320312 C 220.082031 233.832031 220.746094 234.367188 221.394531 234.921875 C 222.042969 235.476562 222.671875 236.050781 223.285156 236.644531 C 223.894531 237.238281 224.488281 237.851562 225.0625 238.480469 C 225.636719 239.113281 226.191406 239.761719 226.722656 240.425781 C 227.257812 241.089844 227.769531 241.773438 228.257812 242.472656 C 228.75 243.167969 229.21875 243.878906 229.664062 244.605469 C 230.109375 245.335938 230.53125 246.074219 230.933594 246.828125 C 231.332031 247.582031 231.707031 248.347656 232.058594 249.121094 C 232.410156 249.898438 232.738281 250.6875 233.039062 251.484375 C 233.34375 252.28125 233.621094 253.085938 233.875 253.902344 C 234.125 254.714844 234.351562 255.539062 234.554688 256.367188 C 234.753906 257.195312 234.929688 258.027344 235.078125 258.867188 C 235.226562 259.707031 235.347656 260.550781 235.445312 261.398438 C 235.539062 262.246094 235.609375 263.097656 235.652344 263.949219 C 235.695312 264.800781 235.710938 265.652344 235.699219 266.503906 C 235.6875 267.355469 235.652344 268.207031 235.589844 269.058594 C 235.523438 269.910156 235.433594 270.757812 235.316406 271.601562 C 235.199219 272.445312 235.058594 273.285156 234.886719 274.121094 C 234.71875 274.957031 234.523438 275.789062 234.300781 276.609375 Z M 234.300781 276.609375 " fill-opacity="0.7765" fill-rule="evenodd"/></g><g clip-path="url(#7ac8df661f)"><path fill="#01a6e6" d="M 210.820312 276.839844 C 202.371094 277.191406 195.554688 282.058594 194.015625 305.816406 C 183.675781 299.03125 172.722656 293.449219 161.15625 289.066406 C 161.1875 287.625 161.339844 286.191406 161.609375 284.773438 C 161.878906 283.351562 162.257812 281.964844 162.753906 280.609375 C 163.25 279.25 163.855469 277.945312 164.5625 276.683594 C 165.273438 275.425781 166.082031 274.234375 166.984375 273.109375 C 167.890625 271.980469 168.878906 270.9375 169.957031 269.972656 C 171.03125 269.007812 172.179688 268.136719 173.394531 267.359375 C 174.613281 266.582031 175.886719 265.910156 177.214844 265.339844 C 178.542969 264.773438 179.910156 264.316406 181.3125 263.96875 C 182.714844 263.625 184.136719 263.394531 185.578125 263.28125 C 187.015625 263.167969 188.457031 263.175781 189.898438 263.296875 C 191.335938 263.417969 192.757812 263.65625 194.15625 264.011719 C 195.558594 264.367188 196.921875 264.832031 198.246094 265.410156 C 199.570312 265.988281 200.835938 266.671875 202.050781 267.453125 C 203.261719 268.238281 204.40625 269.117188 205.472656 270.089844 C 206.542969 271.0625 207.527344 272.113281 208.421875 273.246094 C 209.320312 274.378906 210.121094 275.574219 210.820312 276.839844 Z M 210.820312 276.839844 " fill-opacity="0.7765" fill-rule="evenodd"/></g><path fill="#2063b2" d="M 249.464844 236.023438 C 248.460938 236.3125 247.535156 236.757812 246.679688 237.359375 C 243.390625 239.925781 245.640625 242.699219 245.933594 244.699219 C 246.070312 245.648438 245.210938 247.175781 242.367188 249.03125 C 245.652344 251.457031 243.441406 253.3125 242.117188 255.097656 C 235.96875 259.53125 244.527344 269.136719 234.378906 276.585938 C 224.136719 280.804688 211.683594 273.363281 203.269531 279.074219 C 203.136719 278.304688 203.027344 277.535156 202.941406 276.757812 C 202.855469 275.984375 202.796875 275.207031 202.757812 274.429688 C 202.722656 273.648438 202.707031 272.871094 202.71875 272.089844 C 202.730469 271.308594 202.765625 270.53125 202.824219 269.753906 C 202.882812 268.976562 202.96875 268.203125 203.074219 267.429688 C 203.183594 266.65625 203.3125 265.890625 203.46875 265.125 C 203.625 264.359375 203.804688 263.601562 204.003906 262.847656 C 204.207031 262.09375 204.433594 261.347656 204.679688 260.609375 C 204.929688 259.871094 205.199219 259.140625 205.496094 258.417969 C 205.789062 257.695312 206.105469 256.984375 206.441406 256.28125 C 206.78125 255.578125 207.140625 254.886719 207.519531 254.207031 C 207.902344 253.523438 208.304688 252.855469 208.726562 252.203125 C 209.148438 251.546875 209.589844 250.902344 210.054688 250.277344 C 210.515625 249.648438 210.996094 249.035156 211.496094 248.4375 C 211.996094 247.839844 212.515625 247.257812 213.050781 246.691406 C 213.589844 246.125 214.140625 245.574219 214.710938 245.042969 C 215.28125 244.511719 215.867188 243.996094 216.472656 243.503906 C 217.074219 243.007812 217.691406 242.53125 218.324219 242.074219 C 218.953125 241.617188 219.601562 241.179688 220.257812 240.761719 C 220.917969 240.34375 221.589844 239.949219 222.273438 239.574219 C 222.957031 239.199219 223.652344 238.84375 224.355469 238.511719 C 225.0625 238.179688 225.777344 237.867188 226.5 237.582031 C 227.226562 237.292969 227.960938 237.027344 228.699219 236.785156 C 229.441406 236.542969 230.191406 236.324219 230.945312 236.125 C 231.699219 235.929688 232.460938 235.757812 233.226562 235.609375 C 233.992188 235.460938 234.761719 235.335938 235.535156 235.234375 C 236.308594 235.132812 237.082031 235.054688 237.859375 235 C 238.640625 234.949219 239.417969 234.917969 240.199219 234.914062 C 240.976562 234.910156 241.757812 234.929688 242.535156 234.972656 C 243.316406 235.015625 244.089844 235.082031 244.867188 235.175781 C 245.640625 235.265625 246.410156 235.382812 247.179688 235.519531 C 247.945312 235.660156 248.707031 235.824219 249.464844 236.011719 Z M 249.464844 236.023438 " fill-opacity="0.7765" fill-rule="evenodd"/><path fill="#12bcbc" d="M 130.523438 236.496094 C 131.484375 236.496094 132.433594 236.40625 133.375 236.21875 C 134.320312 236.03125 135.234375 235.753906 136.121094 235.386719 C 137.007812 235.019531 137.851562 234.566406 138.652344 234.035156 C 139.449219 233.5 140.1875 232.894531 140.867188 232.214844 C 141.546875 231.539062 142.152344 230.796875 142.6875 230 C 143.222656 229.203125 143.671875 228.359375 144.039062 227.472656 C 144.40625 226.585938 144.683594 225.671875 144.871094 224.726562 C 145.058594 223.785156 145.152344 222.835938 145.152344 221.875 C 145.15625 220.914062 145.0625 219.964844 144.875 219.023438 C 144.6875 218.082031 144.410156 217.167969 144.042969 216.28125 C 143.675781 215.390625 143.222656 214.550781 142.691406 213.75 C 142.15625 212.953125 141.550781 212.214844 140.871094 211.535156 C 140.191406 210.855469 139.453125 210.25 138.65625 209.714844 C 137.855469 209.183594 137.015625 208.734375 136.125 208.367188 C 135.238281 207.996094 134.324219 207.71875 133.382812 207.53125 C 132.441406 207.347656 131.488281 207.253906 130.527344 207.253906 C 129.566406 207.253906 128.617188 207.347656 127.675781 207.535156 C 126.730469 207.722656 125.816406 208 124.929688 208.367188 C 124.042969 208.734375 123.199219 209.183594 122.402344 209.71875 C 121.601562 210.253906 120.863281 210.859375 120.183594 211.539062 C 119.503906 212.21875 118.898438 212.957031 118.367188 213.753906 C 117.832031 214.554688 117.382812 215.398438 117.015625 216.285156 C 116.648438 217.171875 116.371094 218.085938 116.183594 219.027344 C 115.996094 219.96875 115.902344 220.921875 115.902344 221.882812 C 115.90625 222.839844 116 223.789062 116.1875 224.730469 C 116.378906 225.671875 116.65625 226.585938 117.023438 227.46875 C 117.390625 228.355469 117.84375 229.195312 118.375 229.996094 C 118.910156 230.792969 119.515625 231.527344 120.195312 232.207031 C 120.871094 232.886719 121.609375 233.492188 122.40625 234.023438 C 123.203125 234.558594 124.046875 235.007812 124.933594 235.375 C 125.816406 235.746094 126.730469 236.023438 127.671875 236.210938 C 128.613281 236.398438 129.5625 236.496094 130.523438 236.496094 Z M 130.523438 236.496094 " fill-opacity="0.7765" fill-rule="evenodd"/><path fill="#00b9f1" d="M 161.15625 256.851562 C 162.03125 256.855469 162.898438 256.769531 163.757812 256.601562 C 164.621094 256.433594 165.453125 256.183594 166.265625 255.851562 C 167.074219 255.515625 167.847656 255.109375 168.574219 254.621094 C 169.304688 254.136719 169.980469 253.585938 170.601562 252.96875 C 171.222656 252.351562 171.777344 251.675781 172.265625 250.949219 C 172.757812 250.222656 173.167969 249.453125 173.507812 248.644531 C 173.84375 247.835938 174.097656 247.003906 174.269531 246.144531 C 174.445312 245.285156 174.53125 244.417969 174.53125 243.539062 C 174.535156 242.664062 174.449219 241.796875 174.28125 240.9375 C 174.109375 240.078125 173.859375 239.242188 173.523438 238.429688 C 173.191406 237.621094 172.78125 236.851562 172.296875 236.121094 C 171.808594 235.394531 171.257812 234.71875 170.636719 234.097656 C 170.019531 233.476562 169.347656 232.921875 168.617188 232.433594 C 167.890625 231.945312 167.121094 231.535156 166.3125 231.199219 C 165.503906 230.863281 164.667969 230.609375 163.808594 230.4375 C 162.949219 230.265625 162.082031 230.179688 161.207031 230.175781 C 160.328125 230.175781 159.460938 230.261719 158.601562 230.429688 C 157.742188 230.601562 156.90625 230.855469 156.097656 231.1875 C 155.285156 231.523438 154.515625 231.933594 153.789062 232.421875 C 153.058594 232.90625 152.382812 233.460938 151.765625 234.078125 C 151.144531 234.699219 150.589844 235.371094 150.101562 236.101562 C 149.617188 236.828125 149.203125 237.597656 148.871094 238.40625 C 148.535156 239.21875 148.28125 240.050781 148.109375 240.910156 C 147.9375 241.769531 147.851562 242.636719 147.851562 243.515625 C 147.855469 244.386719 147.941406 245.253906 148.113281 246.109375 C 148.285156 246.96875 148.535156 247.796875 148.871094 248.605469 C 149.207031 249.414062 149.617188 250.179688 150.101562 250.90625 C 150.585938 251.632812 151.136719 252.304688 151.753906 252.925781 C 152.371094 253.542969 153.042969 254.097656 153.765625 254.582031 C 154.492188 255.070312 155.257812 255.480469 156.066406 255.820312 C 156.871094 256.15625 157.703125 256.410156 158.558594 256.585938 C 159.414062 256.757812 160.28125 256.847656 161.15625 256.851562 Z M 161.15625 256.851562 " fill-opacity="0.7765" fill-rule="evenodd"/><path fill="#8dc63f" d="M 128.417969 200.914062 C 129.09375 200.914062 129.757812 200.847656 130.417969 200.714844 C 131.078125 200.585938 131.71875 200.390625 132.339844 200.132812 C 132.960938 199.875 133.554688 199.558594 134.113281 199.1875 C 134.671875 198.8125 135.191406 198.386719 135.664062 197.914062 C 136.140625 197.4375 136.566406 196.917969 136.941406 196.359375 C 137.316406 195.800781 137.628906 195.210938 137.886719 194.585938 C 138.144531 193.964844 138.339844 193.324219 138.472656 192.664062 C 138.601562 192.003906 138.667969 191.339844 138.667969 190.667969 C 138.667969 189.992188 138.601562 189.328125 138.46875 188.667969 C 138.339844 188.007812 138.144531 187.367188 137.886719 186.742188 C 137.628906 186.121094 137.3125 185.53125 136.9375 184.972656 C 136.566406 184.414062 136.140625 183.894531 135.664062 183.417969 C 135.1875 182.941406 134.671875 182.519531 134.109375 182.144531 C 133.550781 181.769531 132.960938 181.457031 132.335938 181.199219 C 131.714844 180.941406 131.074219 180.746094 130.414062 180.617188 C 129.753906 180.484375 129.089844 180.417969 128.414062 180.417969 C 127.742188 180.417969 127.074219 180.484375 126.414062 180.617188 C 125.753906 180.75 125.113281 180.945312 124.492188 181.199219 C 123.871094 181.457031 123.28125 181.773438 122.722656 182.148438 C 122.160156 182.523438 121.644531 182.949219 121.167969 183.425781 C 120.691406 183.898438 120.269531 184.417969 119.894531 184.976562 C 119.519531 185.539062 119.207031 186.128906 118.949219 186.75 C 118.691406 187.371094 118.496094 188.011719 118.367188 188.671875 C 118.234375 189.332031 118.171875 190 118.171875 190.671875 C 118.171875 191.34375 118.238281 192.011719 118.371094 192.667969 C 118.503906 193.328125 118.699219 193.96875 118.957031 194.589844 C 119.214844 195.210938 119.53125 195.800781 119.902344 196.359375 C 120.277344 196.917969 120.703125 197.433594 121.179688 197.910156 C 121.652344 198.386719 122.171875 198.808594 122.730469 199.183594 C 123.289062 199.558594 123.878906 199.871094 124.5 200.128906 C 125.121094 200.386719 125.761719 200.582031 126.421875 200.714844 C 127.082031 200.847656 127.746094 200.910156 128.417969 200.914062 Z M 128.417969 200.914062 " fill-opacity="0.7765" fill-rule="evenodd"/><g clip-path="url(#ba66f10778)"><path fill="#ffd900" d="M 123.308594 165.207031 C 123.308594 165.789062 123.25 166.367188 123.136719 166.9375 C 123.023438 167.511719 122.855469 168.066406 122.632812 168.601562 C 122.410156 169.140625 122.136719 169.652344 121.8125 170.136719 C 121.488281 170.621094 121.121094 171.070312 120.707031 171.480469 C 120.296875 171.894531 119.847656 172.261719 119.363281 172.585938 C 118.878906 172.910156 118.367188 173.183594 117.828125 173.40625 C 117.289062 173.628906 116.734375 173.796875 116.164062 173.910156 C 115.59375 174.023438 115.015625 174.078125 114.433594 174.078125 C 113.851562 174.078125 113.273438 174.023438 112.703125 173.910156 C 112.128906 173.796875 111.574219 173.628906 111.039062 173.40625 C 110.5 173.183594 109.988281 172.910156 109.503906 172.585938 C 109.019531 172.261719 108.570312 171.894531 108.15625 171.480469 C 107.746094 171.070312 107.378906 170.621094 107.054688 170.136719 C 106.730469 169.652344 106.457031 169.140625 106.234375 168.601562 C 106.011719 168.066406 105.84375 167.511719 105.730469 166.9375 C 105.617188 166.367188 105.558594 165.789062 105.558594 165.207031 C 105.558594 164.625 105.617188 164.046875 105.730469 163.476562 C 105.84375 162.90625 106.011719 162.351562 106.234375 161.8125 C 106.457031 161.273438 106.730469 160.761719 107.054688 160.277344 C 107.378906 159.792969 107.746094 159.347656 108.15625 158.933594 C 108.570312 158.523438 109.019531 158.152344 109.503906 157.832031 C 109.988281 157.507812 110.5 157.234375 111.039062 157.011719 C 111.574219 156.789062 112.128906 156.621094 112.703125 156.503906 C 113.273438 156.390625 113.851562 156.335938 114.433594 156.335938 C 115.015625 156.335938 115.59375 156.390625 116.164062 156.503906 C 116.734375 156.621094 117.289062 156.789062 117.828125 157.011719 C 118.367188 157.234375 118.878906 157.507812 119.363281 157.832031 C 119.847656 158.152344 120.296875 158.523438 120.707031 158.933594 C 121.121094 159.347656 121.488281 159.792969 121.8125 160.277344 C 122.136719 160.761719 122.410156 161.273438 122.632812 161.8125 C 122.855469 162.351562 123.023438 162.90625 123.136719 163.476562 C 123.25 164.046875 123.308594 164.625 123.308594 165.207031 Z M 123.308594 165.207031 " fill-opacity="0.7765" fill-rule="nonzero"/></g><path fill="#009444" d="M 133.183594 148.949219 C 133.726562 148.953125 134.265625 148.898438 134.800781 148.792969 C 135.332031 148.6875 135.851562 148.53125 136.355469 148.324219 C 136.855469 148.113281 137.335938 147.859375 137.789062 147.558594 C 138.238281 147.257812 138.660156 146.914062 139.042969 146.527344 C 139.429688 146.144531 139.773438 145.726562 140.074219 145.273438 C 140.378906 144.820312 140.632812 144.34375 140.839844 143.839844 C 141.050781 143.339844 141.207031 142.820312 141.3125 142.289062 C 141.421875 141.753906 141.472656 141.214844 141.472656 140.671875 C 141.472656 140.128906 141.421875 139.589844 141.316406 139.054688 C 141.210938 138.523438 141.050781 138.003906 140.84375 137.5 C 140.636719 137 140.382812 136.519531 140.078125 136.066406 C 139.777344 135.617188 139.433594 135.195312 139.050781 134.8125 C 138.664062 134.425781 138.246094 134.082031 137.792969 133.78125 C 137.34375 133.480469 136.863281 133.222656 136.363281 133.015625 C 135.859375 132.808594 135.339844 132.648438 134.808594 132.542969 C 134.273438 132.4375 133.734375 132.382812 133.191406 132.382812 C 132.648438 132.382812 132.109375 132.4375 131.574219 132.542969 C 131.039062 132.648438 130.523438 132.804688 130.019531 133.015625 C 129.515625 133.222656 129.039062 133.476562 128.585938 133.777344 C 128.132812 134.082031 127.714844 134.425781 127.332031 134.808594 C 126.945312 135.195312 126.601562 135.613281 126.300781 136.066406 C 126 136.515625 125.742188 136.996094 125.535156 137.496094 C 125.328125 138 125.167969 138.515625 125.0625 139.050781 C 124.957031 139.585938 124.902344 140.125 124.902344 140.667969 C 124.90625 141.210938 124.957031 141.75 125.066406 142.28125 C 125.171875 142.816406 125.328125 143.332031 125.535156 143.832031 C 125.746094 144.335938 126 144.8125 126.300781 145.265625 C 126.605469 145.714844 126.949219 146.132812 127.332031 146.519531 C 127.714844 146.902344 128.132812 147.246094 128.585938 147.546875 C 129.039062 147.851562 129.515625 148.105469 130.015625 148.316406 C 130.519531 148.523438 131.035156 148.679688 131.566406 148.789062 C 132.101562 148.894531 132.640625 148.949219 133.183594 148.949219 Z M 133.183594 148.949219 " fill-opacity="0.7765" fill-rule="evenodd"/><path fill="#56ba48" d="M 135.996094 169.597656 C 136.355469 169.597656 136.710938 169.5625 137.0625 169.492188 C 137.414062 169.421875 137.757812 169.316406 138.089844 169.179688 C 138.421875 169.042969 138.738281 168.875 139.035156 168.675781 C 139.335938 168.472656 139.609375 168.246094 139.863281 167.992188 C 140.117188 167.738281 140.34375 167.464844 140.546875 167.164062 C 140.746094 166.867188 140.914062 166.550781 141.050781 166.21875 C 141.1875 165.886719 141.292969 165.542969 141.363281 165.191406 C 141.433594 164.839844 141.46875 164.484375 141.46875 164.125 C 141.46875 163.765625 141.433594 163.410156 141.363281 163.058594 C 141.292969 162.703125 141.1875 162.363281 141.050781 162.03125 C 140.914062 161.699219 140.746094 161.382812 140.546875 161.085938 C 140.34375 160.785156 140.117188 160.507812 139.863281 160.253906 C 139.609375 160 139.335938 159.773438 139.035156 159.574219 C 138.738281 159.375 138.421875 159.207031 138.089844 159.070312 C 137.757812 158.933594 137.414062 158.828125 137.0625 158.757812 C 136.710938 158.6875 136.355469 158.652344 135.996094 158.652344 C 135.636719 158.652344 135.28125 158.6875 134.925781 158.757812 C 134.574219 158.828125 134.234375 158.933594 133.902344 159.070312 C 133.570312 159.207031 133.253906 159.375 132.953125 159.574219 C 132.65625 159.773438 132.378906 160 132.125 160.253906 C 131.871094 160.507812 131.644531 160.785156 131.445312 161.085938 C 131.246094 161.382812 131.078125 161.699219 130.9375 162.03125 C 130.800781 162.363281 130.699219 162.703125 130.628906 163.058594 C 130.558594 163.410156 130.523438 163.765625 130.523438 164.125 C 130.523438 164.484375 130.558594 164.839844 130.628906 165.191406 C 130.699219 165.542969 130.804688 165.886719 130.941406 166.214844 C 131.078125 166.546875 131.25 166.863281 131.449219 167.160156 C 131.648438 167.460938 131.875 167.734375 132.128906 167.988281 C 132.382812 168.242188 132.660156 168.46875 132.957031 168.671875 C 133.253906 168.871094 133.570312 169.039062 133.902344 169.175781 C 134.234375 169.3125 134.574219 169.417969 134.929688 169.488281 C 135.28125 169.558594 135.636719 169.59375 135.996094 169.597656 Z M 135.996094 169.597656 " fill-opacity="0.7765" fill-rule="evenodd"/><g clip-path="url(#25fe0ba241)"><path fill="#fbad17" d="M 147.410156 134.804688 C 147.769531 134.804688 148.125 134.769531 148.476562 134.699219 C 148.828125 134.628906 149.171875 134.523438 149.503906 134.386719 C 149.835938 134.25 150.152344 134.082031 150.449219 133.882812 C 150.75 133.679688 151.023438 133.453125 151.277344 133.199219 C 151.53125 132.945312 151.761719 132.671875 151.960938 132.371094 C 152.160156 132.074219 152.328125 131.757812 152.464844 131.425781 C 152.601562 131.09375 152.707031 130.75 152.777344 130.398438 C 152.847656 130.046875 152.882812 129.691406 152.882812 129.332031 C 152.882812 128.972656 152.847656 128.617188 152.777344 128.265625 C 152.707031 127.910156 152.601562 127.570312 152.464844 127.238281 C 152.328125 126.90625 152.160156 126.589844 151.960938 126.292969 C 151.761719 125.992188 151.53125 125.714844 151.277344 125.460938 C 151.023438 125.207031 150.75 124.980469 150.449219 124.78125 C 150.152344 124.582031 149.835938 124.414062 149.503906 124.277344 C 149.171875 124.140625 148.828125 124.035156 148.476562 123.964844 C 148.125 123.894531 147.769531 123.859375 147.410156 123.859375 C 147.050781 123.859375 146.695312 123.894531 146.339844 123.964844 C 145.988281 124.035156 145.648438 124.140625 145.316406 124.277344 C 144.984375 124.414062 144.667969 124.582031 144.367188 124.78125 C 144.070312 124.980469 143.792969 125.207031 143.539062 125.460938 C 143.285156 125.714844 143.058594 125.992188 142.859375 126.292969 C 142.660156 126.589844 142.492188 126.90625 142.351562 127.238281 C 142.214844 127.570312 142.113281 127.910156 142.042969 128.265625 C 141.972656 128.617188 141.9375 128.972656 141.9375 129.332031 C 141.9375 129.691406 141.972656 130.046875 142.042969 130.398438 C 142.113281 130.75 142.21875 131.089844 142.355469 131.421875 C 142.496094 131.753906 142.664062 132.070312 142.863281 132.367188 C 143.0625 132.667969 143.289062 132.941406 143.542969 133.195312 C 143.796875 133.449219 144.074219 133.675781 144.371094 133.878906 C 144.671875 134.078125 144.984375 134.246094 145.316406 134.382812 C 145.648438 134.519531 145.992188 134.625 146.34375 134.695312 C 146.695312 134.765625 147.050781 134.800781 147.410156 134.804688 Z M 147.410156 134.804688 " fill-opacity="0.7765" fill-rule="evenodd"/></g><path fill="#f15c22" d="M 113.792969 147 C 114.066406 147 114.335938 146.972656 114.601562 146.917969 C 114.867188 146.863281 115.125 146.785156 115.375 146.679688 C 115.625 146.574219 115.863281 146.445312 116.089844 146.292969 C 116.316406 146.140625 116.523438 145.96875 116.714844 145.777344 C 116.90625 145.582031 117.078125 145.375 117.226562 145.148438 C 117.378906 144.921875 117.503906 144.683594 117.605469 144.429688 C 117.710938 144.179688 117.789062 143.921875 117.839844 143.652344 C 117.890625 143.386719 117.917969 143.117188 117.917969 142.847656 C 117.917969 142.574219 117.890625 142.304688 117.835938 142.039062 C 117.78125 141.773438 117.703125 141.515625 117.597656 141.261719 C 117.492188 141.011719 117.363281 140.773438 117.214844 140.550781 C 117.0625 140.324219 116.890625 140.113281 116.695312 139.921875 C 116.503906 139.730469 116.296875 139.558594 116.070312 139.410156 C 115.84375 139.257812 115.605469 139.132812 115.351562 139.027344 C 115.101562 138.925781 114.84375 138.847656 114.574219 138.796875 C 114.308594 138.742188 114.039062 138.714844 113.769531 138.71875 C 113.496094 138.71875 113.226562 138.746094 112.960938 138.796875 C 112.695312 138.851562 112.4375 138.929688 112.183594 139.035156 C 111.933594 139.136719 111.695312 139.265625 111.46875 139.417969 C 111.242188 139.566406 111.035156 139.738281 110.84375 139.933594 C 110.652344 140.125 110.480469 140.332031 110.328125 140.558594 C 110.179688 140.785156 110.050781 141.023438 109.945312 141.273438 C 109.84375 141.527344 109.765625 141.785156 109.710938 142.050781 C 109.660156 142.316406 109.632812 142.585938 109.632812 142.859375 C 109.632812 143.132812 109.660156 143.402344 109.714844 143.667969 C 109.769531 143.933594 109.847656 144.195312 109.953125 144.445312 C 110.058594 144.699219 110.1875 144.9375 110.335938 145.164062 C 110.488281 145.390625 110.664062 145.597656 110.855469 145.789062 C 111.046875 145.984375 111.257812 146.152344 111.484375 146.304688 C 111.710938 146.457031 111.953125 146.582031 112.203125 146.6875 C 112.457031 146.789062 112.714844 146.871094 112.984375 146.921875 C 113.25 146.972656 113.519531 147 113.792969 147 Z M 113.792969 147 " fill-opacity="0.7765" fill-rule="evenodd"/><path fill="#fbad17" d="M 212.265625 189.253906 C 212.265625 190.386719 212.210938 191.519531 212.097656 192.644531 C 211.988281 193.773438 211.820312 194.894531 211.601562 196.003906 C 211.378906 197.117188 211.105469 198.214844 210.773438 199.300781 C 210.445312 200.386719 210.0625 201.449219 209.628906 202.5 C 209.195312 203.546875 208.710938 204.570312 208.179688 205.570312 C 207.644531 206.566406 207.0625 207.539062 206.429688 208.480469 C 205.800781 209.425781 205.125 210.332031 204.40625 211.210938 C 203.6875 212.085938 202.929688 212.925781 202.125 213.726562 C 201.324219 214.527344 200.484375 215.289062 199.609375 216.007812 C 198.734375 216.726562 197.824219 217.402344 196.878906 218.03125 C 195.9375 218.660156 194.964844 219.242188 193.96875 219.777344 C 192.96875 220.3125 191.941406 220.796875 190.894531 221.230469 C 189.847656 221.664062 188.78125 222.042969 187.699219 222.375 C 186.613281 222.703125 185.515625 222.976562 184.402344 223.199219 C 183.289062 223.417969 182.171875 223.585938 181.042969 223.695312 C 179.914062 223.808594 178.78125 223.863281 177.648438 223.863281 C 176.515625 223.863281 175.382812 223.808594 174.253906 223.695312 C 173.128906 223.585938 172.007812 223.417969 170.894531 223.199219 C 169.785156 222.976562 168.683594 222.703125 167.601562 222.375 C 166.515625 222.042969 165.449219 221.664062 164.402344 221.230469 C 163.355469 220.796875 162.332031 220.3125 161.332031 219.777344 C 160.332031 219.242188 159.359375 218.660156 158.417969 218.03125 C 157.472656 217.402344 156.566406 216.726562 155.6875 216.007812 C 154.8125 215.289062 153.972656 214.527344 153.171875 213.726562 C 152.371094 212.925781 151.609375 212.085938 150.890625 211.210938 C 150.171875 210.332031 149.496094 209.425781 148.867188 208.480469 C 148.234375 207.539062 147.652344 206.566406 147.121094 205.570312 C 146.585938 204.570312 146.101562 203.546875 145.667969 202.5 C 145.234375 201.449219 144.851562 200.386719 144.523438 199.300781 C 144.195312 198.214844 143.917969 197.117188 143.699219 196.003906 C 143.476562 194.894531 143.308594 193.773438 143.199219 192.644531 C 143.085938 191.519531 143.03125 190.386719 143.03125 189.253906 C 143.03125 188.121094 143.085938 186.988281 143.199219 185.863281 C 143.308594 184.734375 143.476562 183.613281 143.699219 182.5 C 143.917969 181.390625 144.195312 180.292969 144.523438 179.207031 C 144.851562 178.121094 145.234375 177.054688 145.667969 176.007812 C 146.101562 174.960938 146.585938 173.9375 147.121094 172.9375 C 147.652344 171.9375 148.234375 170.96875 148.867188 170.027344 C 149.496094 169.082031 150.171875 168.175781 150.890625 167.296875 C 151.609375 166.421875 152.371094 165.582031 153.171875 164.78125 C 153.972656 163.980469 154.8125 163.21875 155.6875 162.5 C 156.566406 161.78125 157.472656 161.105469 158.417969 160.476562 C 159.359375 159.847656 160.332031 159.265625 161.332031 158.730469 C 162.332031 158.195312 163.355469 157.710938 164.402344 157.277344 C 165.449219 156.84375 166.515625 156.464844 167.601562 156.132812 C 168.683594 155.804688 169.785156 155.53125 170.894531 155.308594 C 172.007812 155.089844 173.128906 154.921875 174.253906 154.8125 C 175.382812 154.699219 176.515625 154.644531 177.648438 154.644531 C 178.78125 154.644531 179.914062 154.699219 181.042969 154.8125 C 182.171875 154.921875 183.289062 155.089844 184.402344 155.308594 C 185.515625 155.53125 186.613281 155.804688 187.699219 156.132812 C 188.78125 156.464844 189.847656 156.84375 190.894531 157.277344 C 191.941406 157.710938 192.96875 158.195312 193.96875 158.730469 C 194.964844 159.265625 195.9375 159.847656 196.878906 160.476562 C 197.824219 161.105469 198.734375 161.78125 199.609375 162.5 C 200.484375 163.21875 201.324219 163.980469 202.125 164.78125 C 202.929688 165.582031 203.6875 166.421875 204.40625 167.296875 C 205.125 168.175781 205.800781 169.082031 206.429688 170.027344 C 207.0625 170.96875 207.644531 171.9375 208.179688 172.9375 C 208.710938 173.9375 209.195312 174.960938 209.628906 176.007812 C 210.0625 177.054688 210.445312 178.121094 210.773438 179.207031 C 211.105469 180.292969 211.378906 181.390625 211.601562 182.5 C 211.820312 183.613281 211.988281 184.734375 212.097656 185.863281 C 212.210938 186.988281 212.265625 188.121094 212.265625 189.253906 Z M 212.265625 189.253906 " fill-opacity="0.7765" fill-rule="nonzero"/><path fill="#ec008b" d="M 196.773438 136.867188 C 213.359375 140.289062 227.257812 148.597656 235.453125 160.546875 C 235.382812 161.050781 235.296875 161.554688 235.195312 162.054688 C 235.09375 162.558594 234.976562 163.054688 234.847656 163.546875 C 234.714844 164.042969 234.566406 164.53125 234.402344 165.015625 C 234.242188 165.5 234.0625 165.976562 233.871094 166.449219 C 233.679688 166.925781 233.472656 167.390625 233.25 167.851562 C 233.03125 168.3125 232.792969 168.765625 232.542969 169.210938 C 232.296875 169.65625 232.03125 170.09375 231.757812 170.523438 C 231.480469 170.953125 231.191406 171.375 230.886719 171.785156 C 230.585938 172.199219 230.269531 172.601562 229.941406 172.992188 C 229.613281 173.382812 229.277344 173.765625 228.925781 174.136719 C 228.574219 174.507812 228.210938 174.867188 227.839844 175.21875 C 227.464844 175.566406 227.082031 175.902344 226.6875 176.226562 C 226.292969 176.550781 225.886719 176.863281 225.472656 177.164062 C 225.0625 177.464844 224.636719 177.75 224.207031 178.027344 C 223.773438 178.300781 223.335938 178.558594 222.886719 178.804688 C 222.441406 179.050781 221.984375 179.285156 221.523438 179.503906 C 221.0625 179.722656 220.59375 179.925781 220.121094 180.113281 C 219.644531 180.304688 219.164062 180.480469 218.679688 180.636719 C 218.195312 180.796875 217.703125 180.941406 217.210938 181.070312 C 216.714844 181.199219 216.21875 181.316406 215.714844 181.414062 C 215.214844 181.511719 214.710938 181.59375 214.203125 181.660156 C 213.699219 181.730469 213.191406 181.78125 212.679688 181.816406 C 212.171875 181.851562 211.660156 181.871094 211.148438 181.875 C 210.636719 181.878906 210.128906 181.867188 209.617188 181.839844 C 209.105469 181.8125 208.597656 181.769531 208.089844 181.710938 C 207.582031 181.652344 207.078125 181.578125 206.574219 181.488281 C 206.070312 181.398438 205.570312 181.289062 205.074219 181.167969 C 204.578125 181.046875 204.085938 180.910156 203.597656 180.761719 C 203.109375 180.609375 202.628906 180.441406 202.152344 180.261719 C 201.671875 180.078125 201.203125 179.882812 200.738281 179.671875 C 200.269531 179.460938 199.8125 179.234375 199.359375 178.996094 C 198.910156 178.757812 198.464844 178.503906 198.03125 178.238281 C 197.59375 177.96875 197.167969 177.691406 196.75 177.398438 C 196.332031 177.105469 195.921875 176.796875 195.523438 176.480469 C 195.121094 176.160156 194.734375 175.828125 194.355469 175.488281 C 193.976562 175.144531 193.605469 174.789062 193.25 174.425781 C 192.894531 174.058594 192.546875 173.683594 192.214844 173.296875 C 191.878906 172.910156 191.558594 172.511719 191.25 172.105469 C 190.941406 171.699219 190.644531 171.285156 190.359375 170.859375 C 190.078125 170.433594 189.808594 170 189.550781 169.558594 C 189.292969 169.117188 189.050781 168.667969 188.824219 168.210938 C 188.59375 167.753906 188.378906 167.289062 188.179688 166.820312 C 187.980469 166.347656 187.796875 165.875 187.625 165.390625 C 187.453125 164.910156 187.300781 164.421875 187.160156 163.933594 C 187.019531 163.441406 186.894531 162.945312 186.785156 162.445312 C 186.675781 161.949219 186.578125 161.445312 186.5 160.941406 C 186.421875 160.4375 186.359375 159.929688 186.3125 159.421875 C 186.265625 158.914062 186.234375 158.402344 186.21875 157.890625 C 186.203125 157.382812 186.203125 156.871094 186.21875 156.359375 C 186.234375 155.851562 186.269531 155.339844 186.316406 154.832031 C 186.363281 154.324219 186.425781 153.816406 186.503906 153.3125 C 186.585938 152.804688 186.679688 152.304688 186.789062 151.804688 C 186.898438 151.308594 187.027344 150.8125 187.167969 150.320312 C 187.308594 149.828125 187.464844 149.34375 187.632812 148.863281 C 187.804688 148.382812 187.992188 147.90625 188.191406 147.433594 C 188.390625 146.964844 188.605469 146.503906 188.835938 146.046875 C 189.066406 145.589844 189.308594 145.140625 189.566406 144.699219 C 189.820312 144.257812 190.09375 143.824219 190.375 143.398438 C 190.660156 142.972656 190.957031 142.558594 191.265625 142.152344 C 191.574219 141.746094 191.898438 141.347656 192.230469 140.960938 C 192.566406 140.574219 192.914062 140.199219 193.269531 139.835938 C 193.628906 139.46875 193.996094 139.117188 194.375 138.773438 C 194.753906 138.433594 195.144531 138.101562 195.542969 137.785156 C 195.945312 137.464844 196.351562 137.160156 196.773438 136.867188 Z M 196.773438 136.867188 " fill-opacity="0.7765" fill-rule="evenodd"/><path fill="#56ba48" d="M 165.992188 174.085938 C 166.671875 174.085938 167.351562 174.054688 168.027344 173.988281 C 168.703125 173.921875 169.375 173.820312 170.039062 173.6875 C 170.707031 173.554688 171.363281 173.390625 172.011719 173.195312 C 172.664062 172.996094 173.300781 172.769531 173.929688 172.507812 C 174.558594 172.25 175.171875 171.960938 175.769531 171.640625 C 176.367188 171.320312 176.949219 170.972656 177.515625 170.59375 C 178.078125 170.214844 178.625 169.8125 179.148438 169.382812 C 179.675781 168.953125 180.175781 168.496094 180.65625 168.015625 C 181.136719 167.535156 181.59375 167.035156 182.023438 166.507812 C 182.457031 165.984375 182.859375 165.441406 183.238281 164.875 C 183.613281 164.308594 183.964844 163.730469 184.28125 163.128906 C 184.601562 162.53125 184.894531 161.917969 185.152344 161.292969 C 185.414062 160.664062 185.640625 160.027344 185.839844 159.375 C 186.035156 158.726562 186.199219 158.070312 186.332031 157.402344 C 186.464844 156.738281 186.566406 156.066406 186.632812 155.390625 C 186.699219 154.714844 186.730469 154.039062 186.730469 153.359375 C 186.730469 152.679688 186.699219 152.003906 186.632812 151.328125 C 186.566406 150.652344 186.464844 149.980469 186.335938 149.316406 C 186.203125 148.648438 186.035156 147.992188 185.839844 147.339844 C 185.644531 146.691406 185.414062 146.054688 185.15625 145.425781 C 184.894531 144.800781 184.605469 144.1875 184.285156 143.585938 C 183.964844 142.988281 183.617188 142.40625 183.238281 141.84375 C 182.863281 141.277344 182.457031 140.734375 182.027344 140.210938 C 181.597656 139.683594 181.140625 139.183594 180.660156 138.703125 C 180.179688 138.222656 179.679688 137.765625 179.152344 137.335938 C 178.628906 136.90625 178.082031 136.5 177.519531 136.125 C 176.953125 135.746094 176.371094 135.398438 175.773438 135.078125 C 175.175781 134.757812 174.5625 134.46875 173.933594 134.207031 C 173.308594 133.949219 172.667969 133.71875 172.019531 133.523438 C 171.367188 133.328125 170.710938 133.160156 170.046875 133.027344 C 169.378906 132.898438 168.707031 132.796875 168.03125 132.730469 C 167.355469 132.664062 166.679688 132.628906 166 132.628906 C 165.320312 132.628906 164.644531 132.664062 163.96875 132.730469 C 163.292969 132.796875 162.621094 132.894531 161.957031 133.027344 C 161.289062 133.160156 160.632812 133.324219 159.980469 133.523438 C 159.332031 133.71875 158.695312 133.949219 158.066406 134.207031 C 157.4375 134.46875 156.824219 134.757812 156.226562 135.078125 C 155.628906 135.398438 155.046875 135.746094 154.480469 136.125 C 153.917969 136.5 153.371094 136.90625 152.847656 137.335938 C 152.324219 137.765625 151.820312 138.222656 151.339844 138.699219 C 150.859375 139.179688 150.40625 139.683594 149.972656 140.207031 C 149.542969 140.734375 149.140625 141.277344 148.761719 141.84375 C 148.386719 142.40625 148.035156 142.988281 147.714844 143.585938 C 147.394531 144.1875 147.105469 144.796875 146.847656 145.425781 C 146.585938 146.054688 146.359375 146.691406 146.160156 147.339844 C 145.964844 147.992188 145.800781 148.648438 145.667969 149.316406 C 145.535156 149.980469 145.433594 150.652344 145.367188 151.328125 C 145.300781 152.003906 145.269531 152.679688 145.269531 153.359375 C 145.269531 154.035156 145.304688 154.714844 145.371094 155.390625 C 145.4375 156.0625 145.539062 156.734375 145.671875 157.398438 C 145.804688 158.0625 145.972656 158.722656 146.167969 159.371094 C 146.367188 160.019531 146.59375 160.65625 146.855469 161.285156 C 147.117188 161.910156 147.40625 162.523438 147.726562 163.121094 C 148.046875 163.71875 148.394531 164.300781 148.773438 164.863281 C 149.148438 165.425781 149.554688 165.972656 149.984375 166.496094 C 150.414062 167.019531 150.871094 167.523438 151.347656 168.003906 C 151.828125 168.480469 152.332031 168.9375 152.855469 169.367188 C 153.378906 169.796875 153.921875 170.203125 154.488281 170.578125 C 155.050781 170.957031 155.632812 171.304688 156.230469 171.625 C 156.828125 171.945312 157.441406 172.234375 158.066406 172.496094 C 158.695312 172.757812 159.332031 172.984375 159.980469 173.183594 C 160.628906 173.382812 161.289062 173.546875 161.953125 173.679688 C 162.617188 173.8125 163.289062 173.914062 163.964844 173.984375 C 164.636719 174.050781 165.316406 174.085938 165.992188 174.085938 Z M 165.992188 174.085938 " fill-opacity="0.7765" fill-rule="evenodd"/></svg>